M48
;DRILL file {KiCad 4.0.7} date 12/10/17 21:42:30
;FORMAT={-:-/ absolute / metric / decimal}
FMAT,2
METRIC,TZ
T1C0.400
T2C0.700
T3C0.800
T4C0.813
T5C1.000
T6C1.143
%
G90
G05
M71
T1
X150.914Y-59.741
X150.988Y-71.638
X151.041Y-83.655
X151.943Y-46.711
X151.943Y-54.902
X152.095Y-32.271
X152.133Y-37.833
X152.217Y-87.955
X152.245Y-108.072
X152.273Y-100.416
X154.457Y-32.194
X154.61Y-35.509
X154.61Y-38.1
X155.793Y-88.179
X155.877Y-100.528
X155.961Y-108.044
X156.464Y-61.887
X156.553Y-33.604
X158.839Y-59.428
X159.062Y-100.5
X159.118Y-108.1
X159.146Y-88.29
X160.459Y-61.943
X161.996Y-100.584
X162.052Y-108.016
X162.164Y-88.235
X162.303Y-57.361
X162.359Y-59.512
X162.415Y-52.862
X164.371Y-61.971
X165.684Y-59.568
X166.131Y-80.132
X168.143Y-61.943
X168.646Y-80.076
X170.193Y-68.923
X184.038Y-44.988
X184.059Y-42.306
X184.088Y-39.543
X185.786Y-42.306
X185.796Y-39.56
X185.826Y-44.948
X187.345Y-44.917
X187.373Y-42.349
X187.383Y-39.538
X201.229Y-38.892
X201.29Y-36.393
X201.358Y-41.516
X204.493Y-102.037
X204.514Y-99.634
X204.549Y-96.505
X204.633Y-105.054
X204.683Y-36.495
X204.787Y-41.529
X204.826Y-38.832
X207.955Y-36.454
X208.178Y-38.689
X208.293Y-41.491
X208.404Y-99.55
X208.46Y-96.449
X208.488Y-105.054
X208.544Y-102.456
X211.729Y-36.454
X211.877Y-38.608
X211.95Y-41.453
X212.707Y-96.449
X212.735Y-99.522
X212.735Y-102.428
X212.791Y-105.026
X215.138Y-61.356
X215.148Y-53.299
X215.166Y-57.836
X215.168Y-49.886
X215.209Y-44.541
X215.209Y-46.96
X215.227Y-65.761
X215.303Y-41.415
X215.387Y-36.454
X215.456Y-38.595
X216.284Y-99.494
X216.311Y-102.4
X216.367Y-96.421
X216.395Y-105.026
T2
X184.252Y-54.331
X184.252Y-61.951
X187.122Y-54.305
X187.122Y-61.925
X215.646Y-71.12
X215.646Y-78.74
X215.748Y-82.461
X215.748Y-90.081
T3
X156.199Y-50.18
X156.25Y-43.815
X158.699Y-50.18
X158.75Y-43.815
X165.902Y-39.116
X168.402Y-39.116
X169.926Y-100.33
X169.926Y-107.95
X170.866Y-64.763
X170.866Y-72.263
X172.466Y-100.33
X172.466Y-107.95
X173.736Y-45.72
X173.736Y-48.26
X173.736Y-50.8
X173.736Y-53.34
X173.736Y-55.88
X173.736Y-58.42
X173.736Y-60.96
X175.006Y-100.33
X175.006Y-107.95
X177.546Y-100.33
X177.546Y-107.95
X180.086Y-100.33
X180.086Y-107.95
X181.356Y-45.72
X181.356Y-48.26
X181.356Y-50.8
X181.356Y-53.34
X181.356Y-55.88
X181.356Y-58.42
X181.356Y-60.96
X182.626Y-100.33
X182.626Y-107.95
X184.088Y-37.059
X185.166Y-100.33
X185.166Y-107.95
X186.588Y-37.059
X187.706Y-100.33
X187.706Y-107.95
X190.246Y-45.72
X190.246Y-48.26
X190.246Y-50.8
X190.246Y-53.34
X190.246Y-55.88
X190.246Y-58.42
X190.246Y-60.96
X190.246Y-100.33
X190.246Y-107.95
X192.786Y-100.33
X192.786Y-107.95
X195.326Y-100.33
X195.326Y-107.95
X197.866Y-45.72
X197.866Y-48.26
X197.866Y-50.8
X197.866Y-53.34
X197.866Y-55.88
X197.866Y-58.42
X197.866Y-60.96
X197.866Y-100.33
X197.866Y-107.95
X204.216Y-67.564
X204.216Y-73.66
X204.216Y-76.2
X204.216Y-78.74
X204.216Y-81.28
X204.514Y-85.611
X204.514Y-91.249
X211.716Y-67.564
X211.836Y-73.66
X211.836Y-76.2
X211.836Y-78.74
X211.836Y-81.28
X212.014Y-85.611
X212.014Y-91.249
T4
X176.911Y-70.485
X176.911Y-73.025
X176.911Y-75.565
X176.911Y-78.105
X176.911Y-80.645
X176.911Y-83.185
X179.451Y-67.945
X179.451Y-70.485
X179.451Y-73.025
X179.451Y-75.565
X179.451Y-78.105
X179.451Y-80.645
X179.451Y-83.185
X179.451Y-85.725
X181.991Y-67.945
X181.991Y-70.485
X181.991Y-83.185
X181.991Y-85.725
X184.531Y-67.945
X184.531Y-70.485
X184.531Y-83.185
X184.531Y-85.725
X187.071Y-67.945
X187.071Y-70.485
X187.071Y-83.185
X187.071Y-85.725
X189.611Y-67.945
X189.611Y-70.485
X189.611Y-83.185
X189.611Y-85.725
X192.151Y-67.945
X192.151Y-70.485
X192.151Y-73.025
X192.151Y-75.565
X192.151Y-78.105
X192.151Y-80.645
X192.151Y-83.185
X192.151Y-85.725
X194.691Y-70.485
X194.691Y-73.025
X194.691Y-75.565
X194.691Y-78.105
X194.691Y-80.645
X194.691Y-83.185
T5
X156.083Y-66.675
X156.083Y-69.215
X156.083Y-71.755
X156.083Y-74.295
X156.083Y-76.835
X156.083Y-79.375
X159.385Y-38.1
X161.417Y-69.215
X161.417Y-71.755
X161.417Y-74.295
X161.417Y-76.835
X161.417Y-79.375
X161.925Y-38.1
X163.957Y-69.215
X163.957Y-71.755
X163.957Y-74.295
X163.957Y-76.835
X163.957Y-79.375
X167.437Y-96.378
X169.977Y-96.378
X172.517Y-96.378
X175.057Y-96.378
X177.597Y-96.378
X180.137Y-96.378
X182.677Y-96.378
X185.217Y-96.378
X187.757Y-96.378
X190.297Y-96.378
X192.837Y-96.378
X195.377Y-96.378
X197.917Y-96.378
T6
X168.021Y-45.72
X168.021Y-48.26
X168.021Y-50.8
X174.117Y-37.059
X176.657Y-37.059
X179.197Y-37.059
X191.973Y-37.033
X194.513Y-37.033
X197.053Y-37.033
T0
M30
