%FSLAX45Y45*%
G04 Gerber Fmt 4.5, Leading zero omitted, Abs format (unit mm)*
G04 Created by KiCad (PCBNEW 4.0.7) date 12/10/17 21:42:31*
%MOMM*%
%LPD*%
G01*
G04 APERTURE LIST*
%ADD10C,0.127000*%
%ADD11C,0.150000*%
%ADD12C,0.200000*%
%ADD13C,0.300000*%
G04 APERTURE END LIST*
D10*
D11*
X21927820Y-3037840D02*
X14892020Y-3037840D01*
X14919960Y-11046460D02*
X21927820Y-11046460D01*
X14892020Y-11046460D02*
X14919960Y-11046460D01*
X14892020Y-3037840D02*
X14892020Y-11046460D01*
X21927820Y-11046460D02*
X21927820Y-3037840D01*
D12*
X15071410Y-5954080D02*
X15111410Y-5994080D01*
X15111410Y-5954080D02*
X15071410Y-5994080D01*
X15078776Y-7143816D02*
X15118776Y-7183816D01*
X15118776Y-7143816D02*
X15078776Y-7183816D01*
X15084110Y-8345490D02*
X15124110Y-8385490D01*
X15124110Y-8345490D02*
X15084110Y-8385490D01*
X15174280Y-4651060D02*
X15214280Y-4691060D01*
X15214280Y-4651060D02*
X15174280Y-4691060D01*
X15174280Y-5470210D02*
X15214280Y-5510210D01*
X15214280Y-5470210D02*
X15174280Y-5510210D01*
X15189520Y-3207070D02*
X15229520Y-3247070D01*
X15229520Y-3207070D02*
X15189520Y-3247070D01*
X15193330Y-3763330D02*
X15233330Y-3803330D01*
X15233330Y-3763330D02*
X15193330Y-3803330D01*
X15201712Y-8775512D02*
X15241712Y-8815512D01*
X15241712Y-8775512D02*
X15201712Y-8815512D01*
X15204506Y-10787192D02*
X15244506Y-10827192D01*
X15244506Y-10787192D02*
X15204506Y-10827192D01*
X15207300Y-10021636D02*
X15247300Y-10061636D01*
X15247300Y-10021636D02*
X15207300Y-10061636D01*
X15425740Y-3199450D02*
X15465740Y-3239450D01*
X15465740Y-3199450D02*
X15425740Y-3239450D01*
X15440980Y-3530920D02*
X15480980Y-3570920D01*
X15480980Y-3530920D02*
X15440980Y-3570920D01*
X15440980Y-3790000D02*
X15480980Y-3830000D01*
X15480980Y-3790000D02*
X15440980Y-3830000D01*
X15559344Y-8797864D02*
X15599344Y-8837864D01*
X15599344Y-8797864D02*
X15559344Y-8837864D01*
X15567726Y-10032812D02*
X15607726Y-10072812D01*
X15607726Y-10032812D02*
X15567726Y-10072812D01*
X15576108Y-10784398D02*
X15616108Y-10824398D01*
X15616108Y-10784398D02*
X15576108Y-10824398D01*
X15626400Y-6168710D02*
X15666400Y-6208710D01*
X15666400Y-6168710D02*
X15626400Y-6208710D01*
X15635290Y-3340420D02*
X15675290Y-3380420D01*
X15675290Y-3340420D02*
X15635290Y-3380420D01*
X15863890Y-5922838D02*
X15903890Y-5962838D01*
X15903890Y-5922838D02*
X15863890Y-5962838D01*
X15886242Y-10030018D02*
X15926242Y-10070018D01*
X15926242Y-10030018D02*
X15886242Y-10070018D01*
X15891830Y-10789986D02*
X15931830Y-10829986D01*
X15931830Y-10789986D02*
X15891830Y-10829986D01*
X15894624Y-8809040D02*
X15934624Y-8849040D01*
X15934624Y-8809040D02*
X15894624Y-8849040D01*
X16025942Y-6174298D02*
X16065942Y-6214298D01*
X16065942Y-6174298D02*
X16025942Y-6214298D01*
X16179612Y-10038400D02*
X16219612Y-10078400D01*
X16219612Y-10038400D02*
X16179612Y-10078400D01*
X16185200Y-10781604D02*
X16225200Y-10821604D01*
X16225200Y-10781604D02*
X16185200Y-10821604D01*
X16196376Y-8803452D02*
X16236376Y-8843452D01*
X16236376Y-8803452D02*
X16196376Y-8843452D01*
X16210346Y-5716082D02*
X16250346Y-5756082D01*
X16250346Y-5716082D02*
X16210346Y-5756082D01*
X16215934Y-5931220D02*
X16255934Y-5971220D01*
X16255934Y-5931220D02*
X16215934Y-5971220D01*
X16221522Y-5266248D02*
X16261522Y-5306248D01*
X16261522Y-5266248D02*
X16221522Y-5306248D01*
X16417102Y-6177092D02*
X16457102Y-6217092D01*
X16457102Y-6177092D02*
X16417102Y-6217092D01*
X16548420Y-5936808D02*
X16588420Y-5976808D01*
X16588420Y-5936808D02*
X16548420Y-5976808D01*
X16593124Y-7993192D02*
X16633124Y-8033192D01*
X16633124Y-7993192D02*
X16593124Y-8033192D01*
X16794292Y-6174298D02*
X16834292Y-6214298D01*
X16834292Y-6174298D02*
X16794292Y-6214298D01*
X16844584Y-7987604D02*
X16884584Y-8027604D01*
X16884584Y-7987604D02*
X16844584Y-8027604D01*
X16999270Y-6872290D02*
X17039270Y-6912290D01*
X17039270Y-6872290D02*
X16999270Y-6912290D01*
X18383824Y-4478848D02*
X18423824Y-4518848D01*
X18423824Y-4478848D02*
X18383824Y-4518848D01*
X18385856Y-4210624D02*
X18425856Y-4250624D01*
X18425856Y-4210624D02*
X18385856Y-4250624D01*
X18388840Y-3934336D02*
X18428840Y-3974336D01*
X18428840Y-3934336D02*
X18388840Y-3974336D01*
X18558576Y-4210624D02*
X18598576Y-4250624D01*
X18598576Y-4210624D02*
X18558576Y-4250624D01*
X18559592Y-3936050D02*
X18599592Y-3976050D01*
X18599592Y-3936050D02*
X18559592Y-3976050D01*
X18562640Y-4474784D02*
X18602640Y-4514784D01*
X18602640Y-4474784D02*
X18562640Y-4514784D01*
X18714532Y-4471736D02*
X18754532Y-4511736D01*
X18754532Y-4471736D02*
X18714532Y-4511736D01*
X18717326Y-4214942D02*
X18757326Y-4254942D01*
X18757326Y-4214942D02*
X18717326Y-4254942D01*
X18718342Y-3933764D02*
X18758342Y-3973764D01*
X18758342Y-3933764D02*
X18718342Y-3973764D01*
X20102896Y-3869248D02*
X20142896Y-3909248D01*
X20142896Y-3869248D02*
X20102896Y-3909248D01*
X20108992Y-3619312D02*
X20148992Y-3659312D01*
X20148992Y-3619312D02*
X20108992Y-3659312D01*
X20115850Y-4131630D02*
X20155850Y-4171630D01*
X20155850Y-4131630D02*
X20115850Y-4171630D01*
X20429286Y-10183688D02*
X20469286Y-10223688D01*
X20469286Y-10183688D02*
X20429286Y-10223688D01*
X20431380Y-9943404D02*
X20471380Y-9983404D01*
X20471380Y-9943404D02*
X20431380Y-9983404D01*
X20434874Y-9630476D02*
X20474874Y-9670476D01*
X20474874Y-9630476D02*
X20434874Y-9670476D01*
X20443256Y-10485440D02*
X20483256Y-10525440D01*
X20483256Y-10485440D02*
X20443256Y-10525440D01*
X20448336Y-3629472D02*
X20488336Y-3669472D01*
X20488336Y-3629472D02*
X20448336Y-3669472D01*
X20458750Y-4132900D02*
X20498750Y-4172900D01*
X20498750Y-4132900D02*
X20458750Y-4172900D01*
X20462560Y-3863152D02*
X20502560Y-3903152D01*
X20502560Y-3863152D02*
X20462560Y-3903152D01*
X20775488Y-3625408D02*
X20815488Y-3665408D01*
X20815488Y-3625408D02*
X20775488Y-3665408D01*
X20797840Y-3848928D02*
X20837840Y-3888928D01*
X20837840Y-3848928D02*
X20797840Y-3888928D01*
X20809270Y-4129090D02*
X20849270Y-4169090D01*
X20849270Y-4129090D02*
X20809270Y-4169090D01*
X20820446Y-9935022D02*
X20860446Y-9975022D01*
X20860446Y-9935022D02*
X20820446Y-9975022D01*
X20826034Y-9624888D02*
X20866034Y-9664888D01*
X20866034Y-9624888D02*
X20826034Y-9664888D01*
X20828828Y-10485440D02*
X20868828Y-10525440D01*
X20868828Y-10485440D02*
X20828828Y-10525440D01*
X20834416Y-10225598D02*
X20874416Y-10265598D01*
X20874416Y-10225598D02*
X20834416Y-10265598D01*
X21152932Y-3625408D02*
X21192932Y-3665408D01*
X21192932Y-3625408D02*
X21152932Y-3665408D01*
X21167664Y-3840800D02*
X21207664Y-3880800D01*
X21207664Y-3840800D02*
X21167664Y-3880800D01*
X21175030Y-4125280D02*
X21215030Y-4165280D01*
X21215030Y-4125280D02*
X21175030Y-4165280D01*
X21250722Y-9624888D02*
X21290722Y-9664888D01*
X21290722Y-9624888D02*
X21250722Y-9664888D01*
X21253516Y-9932228D02*
X21293516Y-9972228D01*
X21293516Y-9932228D02*
X21253516Y-9972228D01*
X21253516Y-10222804D02*
X21293516Y-10262804D01*
X21293516Y-10222804D02*
X21253516Y-10262804D01*
X21259104Y-10482646D02*
X21299104Y-10522646D01*
X21299104Y-10482646D02*
X21259104Y-10522646D01*
X21493800Y-6115624D02*
X21533800Y-6155624D01*
X21533800Y-6115624D02*
X21493800Y-6155624D01*
X21494816Y-5309936D02*
X21534816Y-5349936D01*
X21534816Y-5309936D02*
X21494816Y-5349936D01*
X21496594Y-5763580D02*
X21536594Y-5803580D01*
X21536594Y-5763580D02*
X21496594Y-5803580D01*
X21496848Y-4968560D02*
X21536848Y-5008560D01*
X21536848Y-4968560D02*
X21496848Y-5008560D01*
X21500912Y-4434144D02*
X21540912Y-4474144D01*
X21540912Y-4434144D02*
X21500912Y-4474144D01*
X21500912Y-4675952D02*
X21540912Y-4715952D01*
X21540912Y-4675952D02*
X21500912Y-4715952D01*
X21502690Y-6556060D02*
X21542690Y-6596060D01*
X21542690Y-6556060D02*
X21502690Y-6596060D01*
X21510310Y-4121470D02*
X21550310Y-4161470D01*
X21550310Y-4121470D02*
X21510310Y-4161470D01*
X21518692Y-3625408D02*
X21558692Y-3665408D01*
X21558692Y-3625408D02*
X21518692Y-3665408D01*
X21525550Y-3839530D02*
X21565550Y-3879530D01*
X21565550Y-3839530D02*
X21525550Y-3879530D01*
X21608354Y-9929434D02*
X21648354Y-9969434D01*
X21648354Y-9929434D02*
X21608354Y-9969434D01*
X21611148Y-10220010D02*
X21651148Y-10260010D01*
X21651148Y-10220010D02*
X21611148Y-10260010D01*
X21616736Y-9622094D02*
X21656736Y-9662094D01*
X21656736Y-9622094D02*
X21616736Y-9662094D01*
X21619530Y-10482646D02*
X21659530Y-10522646D01*
X21659530Y-10482646D02*
X21619530Y-10522646D01*
X18460160Y-5433060D02*
G75*
G03X18460160Y-5433060I-35000J0D01*
G01*
X18460160Y-6195060D02*
G75*
G03X18460160Y-6195060I-35000J0D01*
G01*
X18747180Y-5430520D02*
G75*
G03X18747180Y-5430520I-35000J0D01*
G01*
X18747180Y-6192520D02*
G75*
G03X18747180Y-6192520I-35000J0D01*
G01*
X21599600Y-7112000D02*
G75*
G03X21599600Y-7112000I-35000J0D01*
G01*
X21599600Y-7874000D02*
G75*
G03X21599600Y-7874000I-35000J0D01*
G01*
X21609760Y-8246110D02*
G75*
G03X21609760Y-8246110I-35000J0D01*
G01*
X21609760Y-9008110D02*
G75*
G03X21609760Y-9008110I-35000J0D01*
G01*
X15619920Y-4978024D02*
X15619920Y-5058024D01*
X15579920Y-5018024D02*
X15659920Y-5018024D01*
X15625000Y-4341500D02*
X15625000Y-4421500D01*
X15585000Y-4381500D02*
X15665000Y-4381500D01*
X15869920Y-4978024D02*
X15869920Y-5058024D01*
X15829920Y-5018024D02*
X15909920Y-5018024D01*
X15875000Y-4341500D02*
X15875000Y-4421500D01*
X15835000Y-4381500D02*
X15915000Y-4381500D01*
X16590200Y-3871600D02*
X16590200Y-3951600D01*
X16550200Y-3911600D02*
X16630200Y-3911600D01*
X16840200Y-3871600D02*
X16840200Y-3951600D01*
X16800200Y-3911600D02*
X16880200Y-3911600D01*
X16992600Y-9993000D02*
X16992600Y-10073000D01*
X16952600Y-10033000D02*
X17032600Y-10033000D01*
X16992600Y-10755000D02*
X16992600Y-10835000D01*
X16952600Y-10795000D02*
X17032600Y-10795000D01*
X17086580Y-6436300D02*
X17086580Y-6516300D01*
X17046580Y-6476300D02*
X17126580Y-6476300D01*
X17086580Y-7186300D02*
X17086580Y-7266300D01*
X17046580Y-7226300D02*
X17126580Y-7226300D01*
X17246600Y-9993000D02*
X17246600Y-10073000D01*
X17206600Y-10033000D02*
X17286600Y-10033000D01*
X17246600Y-10755000D02*
X17246600Y-10835000D01*
X17206600Y-10795000D02*
X17286600Y-10795000D01*
X17373600Y-4532000D02*
X17373600Y-4612000D01*
X17333600Y-4572000D02*
X17413600Y-4572000D01*
X17373600Y-4786000D02*
X17373600Y-4866000D01*
X17333600Y-4826000D02*
X17413600Y-4826000D01*
X17373600Y-5040000D02*
X17373600Y-5120000D01*
X17333600Y-5080000D02*
X17413600Y-5080000D01*
X17373600Y-5294000D02*
X17373600Y-5374000D01*
X17333600Y-5334000D02*
X17413600Y-5334000D01*
X17373600Y-5548000D02*
X17373600Y-5628000D01*
X17333600Y-5588000D02*
X17413600Y-5588000D01*
X17373600Y-5802000D02*
X17373600Y-5882000D01*
X17333600Y-5842000D02*
X17413600Y-5842000D01*
X17373600Y-6056000D02*
X17373600Y-6136000D01*
X17333600Y-6096000D02*
X17413600Y-6096000D01*
X17500600Y-9993000D02*
X17500600Y-10073000D01*
X17460600Y-10033000D02*
X17540600Y-10033000D01*
X17500600Y-10755000D02*
X17500600Y-10835000D01*
X17460600Y-10795000D02*
X17540600Y-10795000D01*
X17754600Y-9993000D02*
X17754600Y-10073000D01*
X17714600Y-10033000D02*
X17794600Y-10033000D01*
X17754600Y-10755000D02*
X17754600Y-10835000D01*
X17714600Y-10795000D02*
X17794600Y-10795000D01*
X18008600Y-9993000D02*
X18008600Y-10073000D01*
X17968600Y-10033000D02*
X18048600Y-10033000D01*
X18008600Y-10755000D02*
X18008600Y-10835000D01*
X17968600Y-10795000D02*
X18048600Y-10795000D01*
X18135600Y-4532000D02*
X18135600Y-4612000D01*
X18095600Y-4572000D02*
X18175600Y-4572000D01*
X18135600Y-4786000D02*
X18135600Y-4866000D01*
X18095600Y-4826000D02*
X18175600Y-4826000D01*
X18135600Y-5040000D02*
X18135600Y-5120000D01*
X18095600Y-5080000D02*
X18175600Y-5080000D01*
X18135600Y-5294000D02*
X18135600Y-5374000D01*
X18095600Y-5334000D02*
X18175600Y-5334000D01*
X18135600Y-5548000D02*
X18135600Y-5628000D01*
X18095600Y-5588000D02*
X18175600Y-5588000D01*
X18135600Y-5802000D02*
X18135600Y-5882000D01*
X18095600Y-5842000D02*
X18175600Y-5842000D01*
X18135600Y-6056000D02*
X18135600Y-6136000D01*
X18095600Y-6096000D02*
X18175600Y-6096000D01*
X18262600Y-9993000D02*
X18262600Y-10073000D01*
X18222600Y-10033000D02*
X18302600Y-10033000D01*
X18262600Y-10755000D02*
X18262600Y-10835000D01*
X18222600Y-10795000D02*
X18302600Y-10795000D01*
X18408840Y-3665860D02*
X18408840Y-3745860D01*
X18368840Y-3705860D02*
X18448840Y-3705860D01*
X18516600Y-9993000D02*
X18516600Y-10073000D01*
X18476600Y-10033000D02*
X18556600Y-10033000D01*
X18516600Y-10755000D02*
X18516600Y-10835000D01*
X18476600Y-10795000D02*
X18556600Y-10795000D01*
X18658840Y-3665860D02*
X18658840Y-3745860D01*
X18618840Y-3705860D02*
X18698840Y-3705860D01*
X18770600Y-9993000D02*
X18770600Y-10073000D01*
X18730600Y-10033000D02*
X18810600Y-10033000D01*
X18770600Y-10755000D02*
X18770600Y-10835000D01*
X18730600Y-10795000D02*
X18810600Y-10795000D01*
X19024600Y-4532000D02*
X19024600Y-4612000D01*
X18984600Y-4572000D02*
X19064600Y-4572000D01*
X19024600Y-4786000D02*
X19024600Y-4866000D01*
X18984600Y-4826000D02*
X19064600Y-4826000D01*
X19024600Y-5040000D02*
X19024600Y-5120000D01*
X18984600Y-5080000D02*
X19064600Y-5080000D01*
X19024600Y-5294000D02*
X19024600Y-5374000D01*
X18984600Y-5334000D02*
X19064600Y-5334000D01*
X19024600Y-5548000D02*
X19024600Y-5628000D01*
X18984600Y-5588000D02*
X19064600Y-5588000D01*
X19024600Y-5802000D02*
X19024600Y-5882000D01*
X18984600Y-5842000D02*
X19064600Y-5842000D01*
X19024600Y-6056000D02*
X19024600Y-6136000D01*
X18984600Y-6096000D02*
X19064600Y-6096000D01*
X19024600Y-9993000D02*
X19024600Y-10073000D01*
X18984600Y-10033000D02*
X19064600Y-10033000D01*
X19024600Y-10755000D02*
X19024600Y-10835000D01*
X18984600Y-10795000D02*
X19064600Y-10795000D01*
X19278600Y-9993000D02*
X19278600Y-10073000D01*
X19238600Y-10033000D02*
X19318600Y-10033000D01*
X19278600Y-10755000D02*
X19278600Y-10835000D01*
X19238600Y-10795000D02*
X19318600Y-10795000D01*
X19532600Y-9993000D02*
X19532600Y-10073000D01*
X19492600Y-10033000D02*
X19572600Y-10033000D01*
X19532600Y-10755000D02*
X19532600Y-10835000D01*
X19492600Y-10795000D02*
X19572600Y-10795000D01*
X19786600Y-4532000D02*
X19786600Y-4612000D01*
X19746600Y-4572000D02*
X19826600Y-4572000D01*
X19786600Y-4786000D02*
X19786600Y-4866000D01*
X19746600Y-4826000D02*
X19826600Y-4826000D01*
X19786600Y-5040000D02*
X19786600Y-5120000D01*
X19746600Y-5080000D02*
X19826600Y-5080000D01*
X19786600Y-5294000D02*
X19786600Y-5374000D01*
X19746600Y-5334000D02*
X19826600Y-5334000D01*
X19786600Y-5548000D02*
X19786600Y-5628000D01*
X19746600Y-5588000D02*
X19826600Y-5588000D01*
X19786600Y-5802000D02*
X19786600Y-5882000D01*
X19746600Y-5842000D02*
X19826600Y-5842000D01*
X19786600Y-6056000D02*
X19786600Y-6136000D01*
X19746600Y-6096000D02*
X19826600Y-6096000D01*
X19786600Y-9993000D02*
X19786600Y-10073000D01*
X19746600Y-10033000D02*
X19826600Y-10033000D01*
X19786600Y-10755000D02*
X19786600Y-10835000D01*
X19746600Y-10795000D02*
X19826600Y-10795000D01*
X20421600Y-6716400D02*
X20421600Y-6796400D01*
X20381600Y-6756400D02*
X20461600Y-6756400D01*
X20421600Y-7326000D02*
X20421600Y-7406000D01*
X20381600Y-7366000D02*
X20461600Y-7366000D01*
X20421600Y-7580000D02*
X20421600Y-7660000D01*
X20381600Y-7620000D02*
X20461600Y-7620000D01*
X20421600Y-7834000D02*
X20421600Y-7914000D01*
X20381600Y-7874000D02*
X20461600Y-7874000D01*
X20421600Y-8088000D02*
X20421600Y-8168000D01*
X20381600Y-8128000D02*
X20461600Y-8128000D01*
X20451380Y-8521070D02*
X20451380Y-8601070D01*
X20411380Y-8561070D02*
X20491380Y-8561070D01*
X20451380Y-9084950D02*
X20451380Y-9164950D01*
X20411380Y-9124950D02*
X20491380Y-9124950D01*
X21171600Y-6716400D02*
X21171600Y-6796400D01*
X21131600Y-6756400D02*
X21211600Y-6756400D01*
X21183600Y-7326000D02*
X21183600Y-7406000D01*
X21143600Y-7366000D02*
X21223600Y-7366000D01*
X21183600Y-7580000D02*
X21183600Y-7660000D01*
X21143600Y-7620000D02*
X21223600Y-7620000D01*
X21183600Y-7834000D02*
X21183600Y-7914000D01*
X21143600Y-7874000D02*
X21223600Y-7874000D01*
X21183600Y-8088000D02*
X21183600Y-8168000D01*
X21143600Y-8128000D02*
X21223600Y-8128000D01*
X21201380Y-8521070D02*
X21201380Y-8601070D01*
X21161380Y-8561070D02*
X21241380Y-8561070D01*
X21201380Y-9084950D02*
X21201380Y-9164950D01*
X21161380Y-9124950D02*
X21241380Y-9124950D01*
X17719837Y-7077237D02*
X17719837Y-7019763D01*
X17662363Y-7019763D01*
X17662363Y-7077237D01*
X17719837Y-7077237D01*
X17719837Y-7331237D02*
X17719837Y-7273763D01*
X17662363Y-7273763D01*
X17662363Y-7331237D01*
X17719837Y-7331237D01*
X17719837Y-7585237D02*
X17719837Y-7527763D01*
X17662363Y-7527763D01*
X17662363Y-7585237D01*
X17719837Y-7585237D01*
X17719837Y-7839237D02*
X17719837Y-7781763D01*
X17662363Y-7781763D01*
X17662363Y-7839237D01*
X17719837Y-7839237D01*
X17719837Y-8093237D02*
X17719837Y-8035763D01*
X17662363Y-8035763D01*
X17662363Y-8093237D01*
X17719837Y-8093237D01*
X17719837Y-8347237D02*
X17719837Y-8289763D01*
X17662363Y-8289763D01*
X17662363Y-8347237D01*
X17719837Y-8347237D01*
X17973837Y-6823237D02*
X17973837Y-6765763D01*
X17916363Y-6765763D01*
X17916363Y-6823237D01*
X17973837Y-6823237D01*
X17973837Y-7077237D02*
X17973837Y-7019763D01*
X17916363Y-7019763D01*
X17916363Y-7077237D01*
X17973837Y-7077237D01*
X17973837Y-7331237D02*
X17973837Y-7273763D01*
X17916363Y-7273763D01*
X17916363Y-7331237D01*
X17973837Y-7331237D01*
X17973837Y-7585237D02*
X17973837Y-7527763D01*
X17916363Y-7527763D01*
X17916363Y-7585237D01*
X17973837Y-7585237D01*
X17973837Y-7839237D02*
X17973837Y-7781763D01*
X17916363Y-7781763D01*
X17916363Y-7839237D01*
X17973837Y-7839237D01*
X17973837Y-8093237D02*
X17973837Y-8035763D01*
X17916363Y-8035763D01*
X17916363Y-8093237D01*
X17973837Y-8093237D01*
X17973837Y-8347237D02*
X17973837Y-8289763D01*
X17916363Y-8289763D01*
X17916363Y-8347237D01*
X17973837Y-8347237D01*
X17973837Y-8601237D02*
X17973837Y-8543763D01*
X17916363Y-8543763D01*
X17916363Y-8601237D01*
X17973837Y-8601237D01*
X18227837Y-6823237D02*
X18227837Y-6765763D01*
X18170363Y-6765763D01*
X18170363Y-6823237D01*
X18227837Y-6823237D01*
X18227837Y-7077237D02*
X18227837Y-7019763D01*
X18170363Y-7019763D01*
X18170363Y-7077237D01*
X18227837Y-7077237D01*
X18227837Y-8347237D02*
X18227837Y-8289763D01*
X18170363Y-8289763D01*
X18170363Y-8347237D01*
X18227837Y-8347237D01*
X18227837Y-8601237D02*
X18227837Y-8543763D01*
X18170363Y-8543763D01*
X18170363Y-8601237D01*
X18227837Y-8601237D01*
X18481837Y-6823237D02*
X18481837Y-6765763D01*
X18424363Y-6765763D01*
X18424363Y-6823237D01*
X18481837Y-6823237D01*
X18481837Y-7077237D02*
X18481837Y-7019763D01*
X18424363Y-7019763D01*
X18424363Y-7077237D01*
X18481837Y-7077237D01*
X18481837Y-8347237D02*
X18481837Y-8289763D01*
X18424363Y-8289763D01*
X18424363Y-8347237D01*
X18481837Y-8347237D01*
X18481837Y-8601237D02*
X18481837Y-8543763D01*
X18424363Y-8543763D01*
X18424363Y-8601237D01*
X18481837Y-8601237D01*
X18735837Y-6823237D02*
X18735837Y-6765763D01*
X18678363Y-6765763D01*
X18678363Y-6823237D01*
X18735837Y-6823237D01*
X18735837Y-7077237D02*
X18735837Y-7019763D01*
X18678363Y-7019763D01*
X18678363Y-7077237D01*
X18735837Y-7077237D01*
X18735837Y-8347237D02*
X18735837Y-8289763D01*
X18678363Y-8289763D01*
X18678363Y-8347237D01*
X18735837Y-8347237D01*
X18735837Y-8601237D02*
X18735837Y-8543763D01*
X18678363Y-8543763D01*
X18678363Y-8601237D01*
X18735837Y-8601237D01*
X18989837Y-6823237D02*
X18989837Y-6765763D01*
X18932363Y-6765763D01*
X18932363Y-6823237D01*
X18989837Y-6823237D01*
X18989837Y-7077237D02*
X18989837Y-7019763D01*
X18932363Y-7019763D01*
X18932363Y-7077237D01*
X18989837Y-7077237D01*
X18989837Y-8347237D02*
X18989837Y-8289763D01*
X18932363Y-8289763D01*
X18932363Y-8347237D01*
X18989837Y-8347237D01*
X18989837Y-8601237D02*
X18989837Y-8543763D01*
X18932363Y-8543763D01*
X18932363Y-8601237D01*
X18989837Y-8601237D01*
X19243837Y-6823237D02*
X19243837Y-6765763D01*
X19186363Y-6765763D01*
X19186363Y-6823237D01*
X19243837Y-6823237D01*
X19243837Y-7077237D02*
X19243837Y-7019763D01*
X19186363Y-7019763D01*
X19186363Y-7077237D01*
X19243837Y-7077237D01*
X19243837Y-7331237D02*
X19243837Y-7273763D01*
X19186363Y-7273763D01*
X19186363Y-7331237D01*
X19243837Y-7331237D01*
X19243837Y-7585237D02*
X19243837Y-7527763D01*
X19186363Y-7527763D01*
X19186363Y-7585237D01*
X19243837Y-7585237D01*
X19243837Y-7839237D02*
X19243837Y-7781763D01*
X19186363Y-7781763D01*
X19186363Y-7839237D01*
X19243837Y-7839237D01*
X19243837Y-8093237D02*
X19243837Y-8035763D01*
X19186363Y-8035763D01*
X19186363Y-8093237D01*
X19243837Y-8093237D01*
X19243837Y-8347237D02*
X19243837Y-8289763D01*
X19186363Y-8289763D01*
X19186363Y-8347237D01*
X19243837Y-8347237D01*
X19243837Y-8601237D02*
X19243837Y-8543763D01*
X19186363Y-8543763D01*
X19186363Y-8601237D01*
X19243837Y-8601237D01*
X19497837Y-7077237D02*
X19497837Y-7019763D01*
X19440363Y-7019763D01*
X19440363Y-7077237D01*
X19497837Y-7077237D01*
X19497837Y-7331237D02*
X19497837Y-7273763D01*
X19440363Y-7273763D01*
X19440363Y-7331237D01*
X19497837Y-7331237D01*
X19497837Y-7585237D02*
X19497837Y-7527763D01*
X19440363Y-7527763D01*
X19440363Y-7585237D01*
X19497837Y-7585237D01*
X19497837Y-7839237D02*
X19497837Y-7781763D01*
X19440363Y-7781763D01*
X19440363Y-7839237D01*
X19497837Y-7839237D01*
X19497837Y-8093237D02*
X19497837Y-8035763D01*
X19440363Y-8035763D01*
X19440363Y-8093237D01*
X19497837Y-8093237D01*
X19497837Y-8347237D02*
X19497837Y-8289763D01*
X19440363Y-8289763D01*
X19440363Y-8347237D01*
X19497837Y-8347237D01*
X15608300Y-6717500D02*
X15658300Y-6667500D01*
X15608300Y-6617500D01*
X15558300Y-6667500D01*
X15608300Y-6717500D01*
X15608300Y-6971500D02*
X15658300Y-6921500D01*
X15608300Y-6871500D01*
X15558300Y-6921500D01*
X15608300Y-6971500D01*
X15608300Y-7225500D02*
X15658300Y-7175500D01*
X15608300Y-7125500D01*
X15558300Y-7175500D01*
X15608300Y-7225500D01*
X15608300Y-7479500D02*
X15658300Y-7429500D01*
X15608300Y-7379500D01*
X15558300Y-7429500D01*
X15608300Y-7479500D01*
X15608300Y-7733500D02*
X15658300Y-7683500D01*
X15608300Y-7633500D01*
X15558300Y-7683500D01*
X15608300Y-7733500D01*
X15608300Y-7987500D02*
X15658300Y-7937500D01*
X15608300Y-7887500D01*
X15558300Y-7937500D01*
X15608300Y-7987500D01*
X15938500Y-3860000D02*
X15988500Y-3810000D01*
X15938500Y-3760000D01*
X15888500Y-3810000D01*
X15938500Y-3860000D01*
X16141700Y-6971500D02*
X16191700Y-6921500D01*
X16141700Y-6871500D01*
X16091700Y-6921500D01*
X16141700Y-6971500D01*
X16141700Y-7225500D02*
X16191700Y-7175500D01*
X16141700Y-7125500D01*
X16091700Y-7175500D01*
X16141700Y-7225500D01*
X16141700Y-7479500D02*
X16191700Y-7429500D01*
X16141700Y-7379500D01*
X16091700Y-7429500D01*
X16141700Y-7479500D01*
X16141700Y-7733500D02*
X16191700Y-7683500D01*
X16141700Y-7633500D01*
X16091700Y-7683500D01*
X16141700Y-7733500D01*
X16141700Y-7987500D02*
X16191700Y-7937500D01*
X16141700Y-7887500D01*
X16091700Y-7937500D01*
X16141700Y-7987500D01*
X16192500Y-3860000D02*
X16242500Y-3810000D01*
X16192500Y-3760000D01*
X16142500Y-3810000D01*
X16192500Y-3860000D01*
X16395700Y-6971500D02*
X16445700Y-6921500D01*
X16395700Y-6871500D01*
X16345700Y-6921500D01*
X16395700Y-6971500D01*
X16395700Y-7225500D02*
X16445700Y-7175500D01*
X16395700Y-7125500D01*
X16345700Y-7175500D01*
X16395700Y-7225500D01*
X16395700Y-7479500D02*
X16445700Y-7429500D01*
X16395700Y-7379500D01*
X16345700Y-7429500D01*
X16395700Y-7479500D01*
X16395700Y-7733500D02*
X16445700Y-7683500D01*
X16395700Y-7633500D01*
X16345700Y-7683500D01*
X16395700Y-7733500D01*
X16395700Y-7987500D02*
X16445700Y-7937500D01*
X16395700Y-7887500D01*
X16345700Y-7937500D01*
X16395700Y-7987500D01*
X16743680Y-9687776D02*
X16793680Y-9637776D01*
X16743680Y-9587776D01*
X16693680Y-9637776D01*
X16743680Y-9687776D01*
X16997680Y-9687776D02*
X17047680Y-9637776D01*
X16997680Y-9587776D01*
X16947680Y-9637776D01*
X16997680Y-9687776D01*
X17251680Y-9687776D02*
X17301680Y-9637776D01*
X17251680Y-9587776D01*
X17201680Y-9637776D01*
X17251680Y-9687776D01*
X17505680Y-9687776D02*
X17555680Y-9637776D01*
X17505680Y-9587776D01*
X17455680Y-9637776D01*
X17505680Y-9687776D01*
X17759680Y-9687776D02*
X17809680Y-9637776D01*
X17759680Y-9587776D01*
X17709680Y-9637776D01*
X17759680Y-9687776D01*
X18013680Y-9687776D02*
X18063680Y-9637776D01*
X18013680Y-9587776D01*
X17963680Y-9637776D01*
X18013680Y-9687776D01*
X18267680Y-9687776D02*
X18317680Y-9637776D01*
X18267680Y-9587776D01*
X18217680Y-9637776D01*
X18267680Y-9687776D01*
X18521680Y-9687776D02*
X18571680Y-9637776D01*
X18521680Y-9587776D01*
X18471680Y-9637776D01*
X18521680Y-9687776D01*
X18775680Y-9687776D02*
X18825680Y-9637776D01*
X18775680Y-9587776D01*
X18725680Y-9637776D01*
X18775680Y-9687776D01*
X19029680Y-9687776D02*
X19079680Y-9637776D01*
X19029680Y-9587776D01*
X18979680Y-9637776D01*
X19029680Y-9687776D01*
X19283680Y-9687776D02*
X19333680Y-9637776D01*
X19283680Y-9587776D01*
X19233680Y-9637776D01*
X19283680Y-9687776D01*
X19537680Y-9687776D02*
X19587680Y-9637776D01*
X19537680Y-9587776D01*
X19487680Y-9637776D01*
X19537680Y-9687776D01*
X19791680Y-9687776D02*
X19841680Y-9637776D01*
X19791680Y-9587776D01*
X19741680Y-9637776D01*
X19791680Y-9687776D01*
X16744950Y-4514850D02*
X16859250Y-4629150D01*
X16859250Y-4514850D02*
X16744950Y-4629150D01*
X16859250Y-4572000D02*
G75*
G03X16859250Y-4572000I-57150J0D01*
G01*
X16744950Y-4768850D02*
X16859250Y-4883150D01*
X16859250Y-4768850D02*
X16744950Y-4883150D01*
X16859250Y-4826000D02*
G75*
G03X16859250Y-4826000I-57150J0D01*
G01*
X16744950Y-5022850D02*
X16859250Y-5137150D01*
X16859250Y-5022850D02*
X16744950Y-5137150D01*
X16859250Y-5080000D02*
G75*
G03X16859250Y-5080000I-57150J0D01*
G01*
X17354550Y-3648710D02*
X17468850Y-3763010D01*
X17468850Y-3648710D02*
X17354550Y-3763010D01*
X17468850Y-3705860D02*
G75*
G03X17468850Y-3705860I-57150J0D01*
G01*
X17608550Y-3648710D02*
X17722850Y-3763010D01*
X17722850Y-3648710D02*
X17608550Y-3763010D01*
X17722850Y-3705860D02*
G75*
G03X17722850Y-3705860I-57150J0D01*
G01*
X17862550Y-3648710D02*
X17976850Y-3763010D01*
X17976850Y-3648710D02*
X17862550Y-3763010D01*
X17976850Y-3705860D02*
G75*
G03X17976850Y-3705860I-57150J0D01*
G01*
X19140170Y-3646170D02*
X19254470Y-3760470D01*
X19254470Y-3646170D02*
X19140170Y-3760470D01*
X19254470Y-3703320D02*
G75*
G03X19254470Y-3703320I-57150J0D01*
G01*
X19394170Y-3646170D02*
X19508470Y-3760470D01*
X19508470Y-3646170D02*
X19394170Y-3760470D01*
X19508470Y-3703320D02*
G75*
G03X19508470Y-3703320I-57150J0D01*
G01*
X19648170Y-3646170D02*
X19762470Y-3760470D01*
X19762470Y-3646170D02*
X19648170Y-3760470D01*
X19762470Y-3703320D02*
G75*
G03X19762470Y-3703320I-57150J0D01*
G01*
D13*
X15155948Y-11519674D02*
X15155948Y-11219674D01*
X15227377Y-11219674D01*
X15270234Y-11233960D01*
X15298806Y-11262531D01*
X15313091Y-11291103D01*
X15327377Y-11348246D01*
X15327377Y-11391103D01*
X15313091Y-11448246D01*
X15298806Y-11476817D01*
X15270234Y-11505389D01*
X15227377Y-11519674D01*
X15155948Y-11519674D01*
X15455948Y-11519674D02*
X15455948Y-11319674D01*
X15455948Y-11376817D02*
X15470234Y-11348246D01*
X15484520Y-11333960D01*
X15513091Y-11319674D01*
X15541663Y-11319674D01*
X15641663Y-11519674D02*
X15641663Y-11319674D01*
X15641663Y-11219674D02*
X15627377Y-11233960D01*
X15641663Y-11248246D01*
X15655948Y-11233960D01*
X15641663Y-11219674D01*
X15641663Y-11248246D01*
X15827377Y-11519674D02*
X15798806Y-11505389D01*
X15784520Y-11476817D01*
X15784520Y-11219674D01*
X15984520Y-11519674D02*
X15955948Y-11505389D01*
X15941663Y-11476817D01*
X15941663Y-11219674D01*
X16327377Y-11519674D02*
X16327377Y-11219674D01*
X16427377Y-11433960D01*
X16527377Y-11219674D01*
X16527377Y-11519674D01*
X16798806Y-11519674D02*
X16798806Y-11362531D01*
X16784520Y-11333960D01*
X16755948Y-11319674D01*
X16698806Y-11319674D01*
X16670234Y-11333960D01*
X16798806Y-11505389D02*
X16770234Y-11519674D01*
X16698806Y-11519674D01*
X16670234Y-11505389D01*
X16655948Y-11476817D01*
X16655948Y-11448246D01*
X16670234Y-11419674D01*
X16698806Y-11405389D01*
X16770234Y-11405389D01*
X16798806Y-11391103D01*
X16941663Y-11319674D02*
X16941663Y-11619674D01*
X16941663Y-11333960D02*
X16970234Y-11319674D01*
X17027377Y-11319674D01*
X17055949Y-11333960D01*
X17070234Y-11348246D01*
X17084520Y-11376817D01*
X17084520Y-11462531D01*
X17070234Y-11491103D01*
X17055949Y-11505389D01*
X17027377Y-11519674D01*
X16970234Y-11519674D01*
X16941663Y-11505389D01*
X17213091Y-11491103D02*
X17227377Y-11505389D01*
X17213091Y-11519674D01*
X17198806Y-11505389D01*
X17213091Y-11491103D01*
X17213091Y-11519674D01*
X17213091Y-11333960D02*
X17227377Y-11348246D01*
X17213091Y-11362531D01*
X17198806Y-11348246D01*
X17213091Y-11333960D01*
X17213091Y-11362531D01*
X14844520Y-11993960D02*
X14884520Y-12033960D01*
X14884520Y-11993960D02*
X14844520Y-12033960D01*
X15213091Y-11849674D02*
X15241663Y-11849674D01*
X15270234Y-11863960D01*
X15284520Y-11878246D01*
X15298806Y-11906817D01*
X15313091Y-11963960D01*
X15313091Y-12035389D01*
X15298806Y-12092531D01*
X15284520Y-12121103D01*
X15270234Y-12135389D01*
X15241663Y-12149674D01*
X15213091Y-12149674D01*
X15184520Y-12135389D01*
X15170234Y-12121103D01*
X15155948Y-12092531D01*
X15141663Y-12035389D01*
X15141663Y-11963960D01*
X15155948Y-11906817D01*
X15170234Y-11878246D01*
X15184520Y-11863960D01*
X15213091Y-11849674D01*
X15441663Y-12121103D02*
X15455948Y-12135389D01*
X15441663Y-12149674D01*
X15427377Y-12135389D01*
X15441663Y-12121103D01*
X15441663Y-12149674D01*
X15713091Y-11949674D02*
X15713091Y-12149674D01*
X15641663Y-11835389D02*
X15570234Y-12049674D01*
X15755948Y-12049674D01*
X15927377Y-11849674D02*
X15955948Y-11849674D01*
X15984520Y-11863960D01*
X15998806Y-11878246D01*
X16013091Y-11906817D01*
X16027377Y-11963960D01*
X16027377Y-12035389D01*
X16013091Y-12092531D01*
X15998806Y-12121103D01*
X15984520Y-12135389D01*
X15955948Y-12149674D01*
X15927377Y-12149674D01*
X15898806Y-12135389D01*
X15884520Y-12121103D01*
X15870234Y-12092531D01*
X15855948Y-12035389D01*
X15855948Y-11963960D01*
X15870234Y-11906817D01*
X15884520Y-11878246D01*
X15898806Y-11863960D01*
X15927377Y-11849674D01*
X16155948Y-12149674D02*
X16155948Y-11949674D01*
X16155948Y-11978246D02*
X16170234Y-11963960D01*
X16198806Y-11949674D01*
X16241663Y-11949674D01*
X16270234Y-11963960D01*
X16284520Y-11992531D01*
X16284520Y-12149674D01*
X16284520Y-11992531D02*
X16298806Y-11963960D01*
X16327377Y-11949674D01*
X16370234Y-11949674D01*
X16398806Y-11963960D01*
X16413091Y-11992531D01*
X16413091Y-12149674D01*
X16555948Y-12149674D02*
X16555948Y-11949674D01*
X16555948Y-11978246D02*
X16570234Y-11963960D01*
X16598806Y-11949674D01*
X16641663Y-11949674D01*
X16670234Y-11963960D01*
X16684520Y-11992531D01*
X16684520Y-12149674D01*
X16684520Y-11992531D02*
X16698806Y-11963960D01*
X16727377Y-11949674D01*
X16770234Y-11949674D01*
X16798806Y-11963960D01*
X16813091Y-11992531D01*
X16813091Y-12149674D01*
X17398806Y-11835389D02*
X17141663Y-12221103D01*
X17784520Y-11849674D02*
X17813091Y-11849674D01*
X17841663Y-11863960D01*
X17855948Y-11878246D01*
X17870234Y-11906817D01*
X17884520Y-11963960D01*
X17884520Y-12035389D01*
X17870234Y-12092531D01*
X17855948Y-12121103D01*
X17841663Y-12135389D01*
X17813091Y-12149674D01*
X17784520Y-12149674D01*
X17755948Y-12135389D01*
X17741663Y-12121103D01*
X17727377Y-12092531D01*
X17713091Y-12035389D01*
X17713091Y-11963960D01*
X17727377Y-11906817D01*
X17741663Y-11878246D01*
X17755948Y-11863960D01*
X17784520Y-11849674D01*
X18013091Y-12121103D02*
X18027377Y-12135389D01*
X18013091Y-12149674D01*
X17998806Y-12135389D01*
X18013091Y-12121103D01*
X18013091Y-12149674D01*
X18213091Y-11849674D02*
X18241663Y-11849674D01*
X18270234Y-11863960D01*
X18284520Y-11878246D01*
X18298806Y-11906817D01*
X18313091Y-11963960D01*
X18313091Y-12035389D01*
X18298806Y-12092531D01*
X18284520Y-12121103D01*
X18270234Y-12135389D01*
X18241663Y-12149674D01*
X18213091Y-12149674D01*
X18184520Y-12135389D01*
X18170234Y-12121103D01*
X18155948Y-12092531D01*
X18141663Y-12035389D01*
X18141663Y-11963960D01*
X18155948Y-11906817D01*
X18170234Y-11878246D01*
X18184520Y-11863960D01*
X18213091Y-11849674D01*
X18598806Y-12149674D02*
X18427377Y-12149674D01*
X18513091Y-12149674D02*
X18513091Y-11849674D01*
X18484520Y-11892531D01*
X18455948Y-11921103D01*
X18427377Y-11935389D01*
X18855948Y-11849674D02*
X18798806Y-11849674D01*
X18770234Y-11863960D01*
X18755948Y-11878246D01*
X18727377Y-11921103D01*
X18713091Y-11978246D01*
X18713091Y-12092531D01*
X18727377Y-12121103D01*
X18741663Y-12135389D01*
X18770234Y-12149674D01*
X18827377Y-12149674D01*
X18855948Y-12135389D01*
X18870234Y-12121103D01*
X18884520Y-12092531D01*
X18884520Y-12021103D01*
X18870234Y-11992531D01*
X18855948Y-11978246D01*
X18827377Y-11963960D01*
X18770234Y-11963960D01*
X18741663Y-11978246D01*
X18727377Y-11992531D01*
X18713091Y-12021103D01*
X18998806Y-11849674D02*
X18998806Y-11906817D01*
X19113091Y-11849674D02*
X19113091Y-11906817D01*
X19555948Y-12263960D02*
X19541663Y-12249674D01*
X19513091Y-12206817D01*
X19498806Y-12178246D01*
X19484520Y-12135389D01*
X19470234Y-12063960D01*
X19470234Y-12006817D01*
X19484520Y-11935389D01*
X19498806Y-11892531D01*
X19513091Y-11863960D01*
X19541663Y-11821103D01*
X19555948Y-11806817D01*
X19713091Y-11978246D02*
X19684520Y-11963960D01*
X19670234Y-11949674D01*
X19655948Y-11921103D01*
X19655948Y-11906817D01*
X19670234Y-11878246D01*
X19684520Y-11863960D01*
X19713091Y-11849674D01*
X19770234Y-11849674D01*
X19798806Y-11863960D01*
X19813091Y-11878246D01*
X19827377Y-11906817D01*
X19827377Y-11921103D01*
X19813091Y-11949674D01*
X19798806Y-11963960D01*
X19770234Y-11978246D01*
X19713091Y-11978246D01*
X19684520Y-11992531D01*
X19670234Y-12006817D01*
X19655948Y-12035389D01*
X19655948Y-12092531D01*
X19670234Y-12121103D01*
X19684520Y-12135389D01*
X19713091Y-12149674D01*
X19770234Y-12149674D01*
X19798806Y-12135389D01*
X19813091Y-12121103D01*
X19827377Y-12092531D01*
X19827377Y-12035389D01*
X19813091Y-12006817D01*
X19798806Y-11992531D01*
X19770234Y-11978246D01*
X19941663Y-11878246D02*
X19955948Y-11863960D01*
X19984520Y-11849674D01*
X20055948Y-11849674D01*
X20084520Y-11863960D01*
X20098806Y-11878246D01*
X20113091Y-11906817D01*
X20113091Y-11935389D01*
X20098806Y-11978246D01*
X19927377Y-12149674D01*
X20113091Y-12149674D01*
X20470234Y-12149674D02*
X20470234Y-11849674D01*
X20598806Y-12149674D02*
X20598806Y-11992531D01*
X20584520Y-11963960D01*
X20555948Y-11949674D01*
X20513091Y-11949674D01*
X20484520Y-11963960D01*
X20470234Y-11978246D01*
X20784520Y-12149674D02*
X20755948Y-12135389D01*
X20741663Y-12121103D01*
X20727377Y-12092531D01*
X20727377Y-12006817D01*
X20741663Y-11978246D01*
X20755948Y-11963960D01*
X20784520Y-11949674D01*
X20827377Y-11949674D01*
X20855948Y-11963960D01*
X20870234Y-11978246D01*
X20884520Y-12006817D01*
X20884520Y-12092531D01*
X20870234Y-12121103D01*
X20855948Y-12135389D01*
X20827377Y-12149674D01*
X20784520Y-12149674D01*
X21055948Y-12149674D02*
X21027377Y-12135389D01*
X21013091Y-12106817D01*
X21013091Y-11849674D01*
X21284520Y-12135389D02*
X21255949Y-12149674D01*
X21198806Y-12149674D01*
X21170234Y-12135389D01*
X21155949Y-12106817D01*
X21155949Y-11992531D01*
X21170234Y-11963960D01*
X21198806Y-11949674D01*
X21255949Y-11949674D01*
X21284520Y-11963960D01*
X21298806Y-11992531D01*
X21298806Y-12021103D01*
X21155949Y-12049674D01*
X21413091Y-12135389D02*
X21441663Y-12149674D01*
X21498806Y-12149674D01*
X21527377Y-12135389D01*
X21541663Y-12106817D01*
X21541663Y-12092531D01*
X21527377Y-12063960D01*
X21498806Y-12049674D01*
X21455949Y-12049674D01*
X21427377Y-12035389D01*
X21413091Y-12006817D01*
X21413091Y-11992531D01*
X21427377Y-11963960D01*
X21455949Y-11949674D01*
X21498806Y-11949674D01*
X21527377Y-11963960D01*
X21641663Y-12263960D02*
X21655949Y-12249674D01*
X21684520Y-12206817D01*
X21698806Y-12178246D01*
X21713091Y-12135389D01*
X21727377Y-12063960D01*
X21727377Y-12006817D01*
X21713091Y-11935389D01*
X21698806Y-11892531D01*
X21684520Y-11863960D01*
X21655949Y-11821103D01*
X21641663Y-11806817D01*
X14884520Y-12409960D02*
G75*
G03X14884520Y-12409960I-35000J0D01*
G01*
X15213091Y-12245674D02*
X15241663Y-12245674D01*
X15270234Y-12259960D01*
X15284520Y-12274246D01*
X15298806Y-12302817D01*
X15313091Y-12359960D01*
X15313091Y-12431389D01*
X15298806Y-12488531D01*
X15284520Y-12517103D01*
X15270234Y-12531389D01*
X15241663Y-12545674D01*
X15213091Y-12545674D01*
X15184520Y-12531389D01*
X15170234Y-12517103D01*
X15155948Y-12488531D01*
X15141663Y-12431389D01*
X15141663Y-12359960D01*
X15155948Y-12302817D01*
X15170234Y-12274246D01*
X15184520Y-12259960D01*
X15213091Y-12245674D01*
X15441663Y-12517103D02*
X15455948Y-12531389D01*
X15441663Y-12545674D01*
X15427377Y-12531389D01*
X15441663Y-12517103D01*
X15441663Y-12545674D01*
X15555948Y-12245674D02*
X15755948Y-12245674D01*
X15627377Y-12545674D01*
X15927377Y-12245674D02*
X15955948Y-12245674D01*
X15984520Y-12259960D01*
X15998806Y-12274246D01*
X16013091Y-12302817D01*
X16027377Y-12359960D01*
X16027377Y-12431389D01*
X16013091Y-12488531D01*
X15998806Y-12517103D01*
X15984520Y-12531389D01*
X15955948Y-12545674D01*
X15927377Y-12545674D01*
X15898806Y-12531389D01*
X15884520Y-12517103D01*
X15870234Y-12488531D01*
X15855948Y-12431389D01*
X15855948Y-12359960D01*
X15870234Y-12302817D01*
X15884520Y-12274246D01*
X15898806Y-12259960D01*
X15927377Y-12245674D01*
X16155948Y-12545674D02*
X16155948Y-12345674D01*
X16155948Y-12374246D02*
X16170234Y-12359960D01*
X16198806Y-12345674D01*
X16241663Y-12345674D01*
X16270234Y-12359960D01*
X16284520Y-12388531D01*
X16284520Y-12545674D01*
X16284520Y-12388531D02*
X16298806Y-12359960D01*
X16327377Y-12345674D01*
X16370234Y-12345674D01*
X16398806Y-12359960D01*
X16413091Y-12388531D01*
X16413091Y-12545674D01*
X16555948Y-12545674D02*
X16555948Y-12345674D01*
X16555948Y-12374246D02*
X16570234Y-12359960D01*
X16598806Y-12345674D01*
X16641663Y-12345674D01*
X16670234Y-12359960D01*
X16684520Y-12388531D01*
X16684520Y-12545674D01*
X16684520Y-12388531D02*
X16698806Y-12359960D01*
X16727377Y-12345674D01*
X16770234Y-12345674D01*
X16798806Y-12359960D01*
X16813091Y-12388531D01*
X16813091Y-12545674D01*
X17398806Y-12231389D02*
X17141663Y-12617103D01*
X17784520Y-12245674D02*
X17813091Y-12245674D01*
X17841663Y-12259960D01*
X17855948Y-12274246D01*
X17870234Y-12302817D01*
X17884520Y-12359960D01*
X17884520Y-12431389D01*
X17870234Y-12488531D01*
X17855948Y-12517103D01*
X17841663Y-12531389D01*
X17813091Y-12545674D01*
X17784520Y-12545674D01*
X17755948Y-12531389D01*
X17741663Y-12517103D01*
X17727377Y-12488531D01*
X17713091Y-12431389D01*
X17713091Y-12359960D01*
X17727377Y-12302817D01*
X17741663Y-12274246D01*
X17755948Y-12259960D01*
X17784520Y-12245674D01*
X18013091Y-12517103D02*
X18027377Y-12531389D01*
X18013091Y-12545674D01*
X17998806Y-12531389D01*
X18013091Y-12517103D01*
X18013091Y-12545674D01*
X18213091Y-12245674D02*
X18241663Y-12245674D01*
X18270234Y-12259960D01*
X18284520Y-12274246D01*
X18298806Y-12302817D01*
X18313091Y-12359960D01*
X18313091Y-12431389D01*
X18298806Y-12488531D01*
X18284520Y-12517103D01*
X18270234Y-12531389D01*
X18241663Y-12545674D01*
X18213091Y-12545674D01*
X18184520Y-12531389D01*
X18170234Y-12517103D01*
X18155948Y-12488531D01*
X18141663Y-12431389D01*
X18141663Y-12359960D01*
X18155948Y-12302817D01*
X18170234Y-12274246D01*
X18184520Y-12259960D01*
X18213091Y-12245674D01*
X18427377Y-12274246D02*
X18441663Y-12259960D01*
X18470234Y-12245674D01*
X18541663Y-12245674D01*
X18570234Y-12259960D01*
X18584520Y-12274246D01*
X18598806Y-12302817D01*
X18598806Y-12331389D01*
X18584520Y-12374246D01*
X18413091Y-12545674D01*
X18598806Y-12545674D01*
X18770234Y-12374246D02*
X18741663Y-12359960D01*
X18727377Y-12345674D01*
X18713091Y-12317103D01*
X18713091Y-12302817D01*
X18727377Y-12274246D01*
X18741663Y-12259960D01*
X18770234Y-12245674D01*
X18827377Y-12245674D01*
X18855948Y-12259960D01*
X18870234Y-12274246D01*
X18884520Y-12302817D01*
X18884520Y-12317103D01*
X18870234Y-12345674D01*
X18855948Y-12359960D01*
X18827377Y-12374246D01*
X18770234Y-12374246D01*
X18741663Y-12388531D01*
X18727377Y-12402817D01*
X18713091Y-12431389D01*
X18713091Y-12488531D01*
X18727377Y-12517103D01*
X18741663Y-12531389D01*
X18770234Y-12545674D01*
X18827377Y-12545674D01*
X18855948Y-12531389D01*
X18870234Y-12517103D01*
X18884520Y-12488531D01*
X18884520Y-12431389D01*
X18870234Y-12402817D01*
X18855948Y-12388531D01*
X18827377Y-12374246D01*
X18998806Y-12245674D02*
X18998806Y-12302817D01*
X19113091Y-12245674D02*
X19113091Y-12302817D01*
X19555948Y-12659960D02*
X19541663Y-12645674D01*
X19513091Y-12602817D01*
X19498806Y-12574246D01*
X19484520Y-12531389D01*
X19470234Y-12459960D01*
X19470234Y-12402817D01*
X19484520Y-12331389D01*
X19498806Y-12288531D01*
X19513091Y-12259960D01*
X19541663Y-12217103D01*
X19555948Y-12202817D01*
X19713091Y-12374246D02*
X19684520Y-12359960D01*
X19670234Y-12345674D01*
X19655948Y-12317103D01*
X19655948Y-12302817D01*
X19670234Y-12274246D01*
X19684520Y-12259960D01*
X19713091Y-12245674D01*
X19770234Y-12245674D01*
X19798806Y-12259960D01*
X19813091Y-12274246D01*
X19827377Y-12302817D01*
X19827377Y-12317103D01*
X19813091Y-12345674D01*
X19798806Y-12359960D01*
X19770234Y-12374246D01*
X19713091Y-12374246D01*
X19684520Y-12388531D01*
X19670234Y-12402817D01*
X19655948Y-12431389D01*
X19655948Y-12488531D01*
X19670234Y-12517103D01*
X19684520Y-12531389D01*
X19713091Y-12545674D01*
X19770234Y-12545674D01*
X19798806Y-12531389D01*
X19813091Y-12517103D01*
X19827377Y-12488531D01*
X19827377Y-12431389D01*
X19813091Y-12402817D01*
X19798806Y-12388531D01*
X19770234Y-12374246D01*
X20184520Y-12545674D02*
X20184520Y-12245674D01*
X20313091Y-12545674D02*
X20313091Y-12388531D01*
X20298806Y-12359960D01*
X20270234Y-12345674D01*
X20227377Y-12345674D01*
X20198806Y-12359960D01*
X20184520Y-12374246D01*
X20498806Y-12545674D02*
X20470234Y-12531389D01*
X20455948Y-12517103D01*
X20441663Y-12488531D01*
X20441663Y-12402817D01*
X20455948Y-12374246D01*
X20470234Y-12359960D01*
X20498806Y-12345674D01*
X20541663Y-12345674D01*
X20570234Y-12359960D01*
X20584520Y-12374246D01*
X20598806Y-12402817D01*
X20598806Y-12488531D01*
X20584520Y-12517103D01*
X20570234Y-12531389D01*
X20541663Y-12545674D01*
X20498806Y-12545674D01*
X20770234Y-12545674D02*
X20741663Y-12531389D01*
X20727377Y-12502817D01*
X20727377Y-12245674D01*
X20998806Y-12531389D02*
X20970234Y-12545674D01*
X20913091Y-12545674D01*
X20884520Y-12531389D01*
X20870234Y-12502817D01*
X20870234Y-12388531D01*
X20884520Y-12359960D01*
X20913091Y-12345674D01*
X20970234Y-12345674D01*
X20998806Y-12359960D01*
X21013091Y-12388531D01*
X21013091Y-12417103D01*
X20870234Y-12445674D01*
X21127377Y-12531389D02*
X21155949Y-12545674D01*
X21213091Y-12545674D01*
X21241663Y-12531389D01*
X21255949Y-12502817D01*
X21255949Y-12488531D01*
X21241663Y-12459960D01*
X21213091Y-12445674D01*
X21170234Y-12445674D01*
X21141663Y-12431389D01*
X21127377Y-12402817D01*
X21127377Y-12388531D01*
X21141663Y-12359960D01*
X21170234Y-12345674D01*
X21213091Y-12345674D01*
X21241663Y-12359960D01*
X21355948Y-12659960D02*
X21370234Y-12645674D01*
X21398806Y-12602817D01*
X21413091Y-12574246D01*
X21427377Y-12531389D01*
X21441663Y-12459960D01*
X21441663Y-12402817D01*
X21427377Y-12331389D01*
X21413091Y-12288531D01*
X21398806Y-12259960D01*
X21370234Y-12217103D01*
X21355948Y-12202817D01*
X14844520Y-12765960D02*
X14844520Y-12845960D01*
X14804520Y-12805960D02*
X14884520Y-12805960D01*
X15213091Y-12641674D02*
X15241663Y-12641674D01*
X15270234Y-12655960D01*
X15284520Y-12670246D01*
X15298806Y-12698817D01*
X15313091Y-12755960D01*
X15313091Y-12827389D01*
X15298806Y-12884531D01*
X15284520Y-12913103D01*
X15270234Y-12927389D01*
X15241663Y-12941674D01*
X15213091Y-12941674D01*
X15184520Y-12927389D01*
X15170234Y-12913103D01*
X15155948Y-12884531D01*
X15141663Y-12827389D01*
X15141663Y-12755960D01*
X15155948Y-12698817D01*
X15170234Y-12670246D01*
X15184520Y-12655960D01*
X15213091Y-12641674D01*
X15441663Y-12913103D02*
X15455948Y-12927389D01*
X15441663Y-12941674D01*
X15427377Y-12927389D01*
X15441663Y-12913103D01*
X15441663Y-12941674D01*
X15627377Y-12770246D02*
X15598806Y-12755960D01*
X15584520Y-12741674D01*
X15570234Y-12713103D01*
X15570234Y-12698817D01*
X15584520Y-12670246D01*
X15598806Y-12655960D01*
X15627377Y-12641674D01*
X15684520Y-12641674D01*
X15713091Y-12655960D01*
X15727377Y-12670246D01*
X15741663Y-12698817D01*
X15741663Y-12713103D01*
X15727377Y-12741674D01*
X15713091Y-12755960D01*
X15684520Y-12770246D01*
X15627377Y-12770246D01*
X15598806Y-12784531D01*
X15584520Y-12798817D01*
X15570234Y-12827389D01*
X15570234Y-12884531D01*
X15584520Y-12913103D01*
X15598806Y-12927389D01*
X15627377Y-12941674D01*
X15684520Y-12941674D01*
X15713091Y-12927389D01*
X15727377Y-12913103D01*
X15741663Y-12884531D01*
X15741663Y-12827389D01*
X15727377Y-12798817D01*
X15713091Y-12784531D01*
X15684520Y-12770246D01*
X15927377Y-12641674D02*
X15955948Y-12641674D01*
X15984520Y-12655960D01*
X15998806Y-12670246D01*
X16013091Y-12698817D01*
X16027377Y-12755960D01*
X16027377Y-12827389D01*
X16013091Y-12884531D01*
X15998806Y-12913103D01*
X15984520Y-12927389D01*
X15955948Y-12941674D01*
X15927377Y-12941674D01*
X15898806Y-12927389D01*
X15884520Y-12913103D01*
X15870234Y-12884531D01*
X15855948Y-12827389D01*
X15855948Y-12755960D01*
X15870234Y-12698817D01*
X15884520Y-12670246D01*
X15898806Y-12655960D01*
X15927377Y-12641674D01*
X16155948Y-12941674D02*
X16155948Y-12741674D01*
X16155948Y-12770246D02*
X16170234Y-12755960D01*
X16198806Y-12741674D01*
X16241663Y-12741674D01*
X16270234Y-12755960D01*
X16284520Y-12784531D01*
X16284520Y-12941674D01*
X16284520Y-12784531D02*
X16298806Y-12755960D01*
X16327377Y-12741674D01*
X16370234Y-12741674D01*
X16398806Y-12755960D01*
X16413091Y-12784531D01*
X16413091Y-12941674D01*
X16555948Y-12941674D02*
X16555948Y-12741674D01*
X16555948Y-12770246D02*
X16570234Y-12755960D01*
X16598806Y-12741674D01*
X16641663Y-12741674D01*
X16670234Y-12755960D01*
X16684520Y-12784531D01*
X16684520Y-12941674D01*
X16684520Y-12784531D02*
X16698806Y-12755960D01*
X16727377Y-12741674D01*
X16770234Y-12741674D01*
X16798806Y-12755960D01*
X16813091Y-12784531D01*
X16813091Y-12941674D01*
X17398806Y-12627389D02*
X17141663Y-13013103D01*
X17784520Y-12641674D02*
X17813091Y-12641674D01*
X17841663Y-12655960D01*
X17855948Y-12670246D01*
X17870234Y-12698817D01*
X17884520Y-12755960D01*
X17884520Y-12827389D01*
X17870234Y-12884531D01*
X17855948Y-12913103D01*
X17841663Y-12927389D01*
X17813091Y-12941674D01*
X17784520Y-12941674D01*
X17755948Y-12927389D01*
X17741663Y-12913103D01*
X17727377Y-12884531D01*
X17713091Y-12827389D01*
X17713091Y-12755960D01*
X17727377Y-12698817D01*
X17741663Y-12670246D01*
X17755948Y-12655960D01*
X17784520Y-12641674D01*
X18013091Y-12913103D02*
X18027377Y-12927389D01*
X18013091Y-12941674D01*
X17998806Y-12927389D01*
X18013091Y-12913103D01*
X18013091Y-12941674D01*
X18213091Y-12641674D02*
X18241663Y-12641674D01*
X18270234Y-12655960D01*
X18284520Y-12670246D01*
X18298806Y-12698817D01*
X18313091Y-12755960D01*
X18313091Y-12827389D01*
X18298806Y-12884531D01*
X18284520Y-12913103D01*
X18270234Y-12927389D01*
X18241663Y-12941674D01*
X18213091Y-12941674D01*
X18184520Y-12927389D01*
X18170234Y-12913103D01*
X18155948Y-12884531D01*
X18141663Y-12827389D01*
X18141663Y-12755960D01*
X18155948Y-12698817D01*
X18170234Y-12670246D01*
X18184520Y-12655960D01*
X18213091Y-12641674D01*
X18413091Y-12641674D02*
X18598806Y-12641674D01*
X18498806Y-12755960D01*
X18541663Y-12755960D01*
X18570234Y-12770246D01*
X18584520Y-12784531D01*
X18598806Y-12813103D01*
X18598806Y-12884531D01*
X18584520Y-12913103D01*
X18570234Y-12927389D01*
X18541663Y-12941674D01*
X18455948Y-12941674D01*
X18427377Y-12927389D01*
X18413091Y-12913103D01*
X18884520Y-12941674D02*
X18713091Y-12941674D01*
X18798806Y-12941674D02*
X18798806Y-12641674D01*
X18770234Y-12684531D01*
X18741663Y-12713103D01*
X18713091Y-12727389D01*
X18998806Y-12641674D02*
X18998806Y-12698817D01*
X19113091Y-12641674D02*
X19113091Y-12698817D01*
X19555948Y-13055960D02*
X19541663Y-13041674D01*
X19513091Y-12998817D01*
X19498806Y-12970246D01*
X19484520Y-12927389D01*
X19470234Y-12855960D01*
X19470234Y-12798817D01*
X19484520Y-12727389D01*
X19498806Y-12684531D01*
X19513091Y-12655960D01*
X19541663Y-12613103D01*
X19555948Y-12598817D01*
X19641663Y-12641674D02*
X19841663Y-12641674D01*
X19713091Y-12941674D01*
X20084520Y-12641674D02*
X20027377Y-12641674D01*
X19998806Y-12655960D01*
X19984520Y-12670246D01*
X19955948Y-12713103D01*
X19941663Y-12770246D01*
X19941663Y-12884531D01*
X19955948Y-12913103D01*
X19970234Y-12927389D01*
X19998806Y-12941674D01*
X20055948Y-12941674D01*
X20084520Y-12927389D01*
X20098806Y-12913103D01*
X20113091Y-12884531D01*
X20113091Y-12813103D01*
X20098806Y-12784531D01*
X20084520Y-12770246D01*
X20055948Y-12755960D01*
X19998806Y-12755960D01*
X19970234Y-12770246D01*
X19955948Y-12784531D01*
X19941663Y-12813103D01*
X20470234Y-12941674D02*
X20470234Y-12641674D01*
X20598806Y-12941674D02*
X20598806Y-12784531D01*
X20584520Y-12755960D01*
X20555948Y-12741674D01*
X20513091Y-12741674D01*
X20484520Y-12755960D01*
X20470234Y-12770246D01*
X20784520Y-12941674D02*
X20755948Y-12927389D01*
X20741663Y-12913103D01*
X20727377Y-12884531D01*
X20727377Y-12798817D01*
X20741663Y-12770246D01*
X20755948Y-12755960D01*
X20784520Y-12741674D01*
X20827377Y-12741674D01*
X20855948Y-12755960D01*
X20870234Y-12770246D01*
X20884520Y-12798817D01*
X20884520Y-12884531D01*
X20870234Y-12913103D01*
X20855948Y-12927389D01*
X20827377Y-12941674D01*
X20784520Y-12941674D01*
X21055948Y-12941674D02*
X21027377Y-12927389D01*
X21013091Y-12898817D01*
X21013091Y-12641674D01*
X21284520Y-12927389D02*
X21255949Y-12941674D01*
X21198806Y-12941674D01*
X21170234Y-12927389D01*
X21155949Y-12898817D01*
X21155949Y-12784531D01*
X21170234Y-12755960D01*
X21198806Y-12741674D01*
X21255949Y-12741674D01*
X21284520Y-12755960D01*
X21298806Y-12784531D01*
X21298806Y-12813103D01*
X21155949Y-12841674D01*
X21413091Y-12927389D02*
X21441663Y-12941674D01*
X21498806Y-12941674D01*
X21527377Y-12927389D01*
X21541663Y-12898817D01*
X21541663Y-12884531D01*
X21527377Y-12855960D01*
X21498806Y-12841674D01*
X21455949Y-12841674D01*
X21427377Y-12827389D01*
X21413091Y-12798817D01*
X21413091Y-12784531D01*
X21427377Y-12755960D01*
X21455949Y-12741674D01*
X21498806Y-12741674D01*
X21527377Y-12755960D01*
X21641663Y-13055960D02*
X21655949Y-13041674D01*
X21684520Y-12998817D01*
X21698806Y-12970246D01*
X21713091Y-12927389D01*
X21727377Y-12855960D01*
X21727377Y-12798817D01*
X21713091Y-12727389D01*
X21698806Y-12684531D01*
X21684520Y-12655960D01*
X21655949Y-12613103D01*
X21641663Y-12598817D01*
X14872617Y-13230697D02*
X14872617Y-13173223D01*
X14815143Y-13173223D01*
X14815143Y-13230697D01*
X14872617Y-13230697D01*
X15213091Y-13037674D02*
X15241663Y-13037674D01*
X15270234Y-13051960D01*
X15284520Y-13066246D01*
X15298806Y-13094817D01*
X15313091Y-13151960D01*
X15313091Y-13223389D01*
X15298806Y-13280531D01*
X15284520Y-13309103D01*
X15270234Y-13323389D01*
X15241663Y-13337674D01*
X15213091Y-13337674D01*
X15184520Y-13323389D01*
X15170234Y-13309103D01*
X15155948Y-13280531D01*
X15141663Y-13223389D01*
X15141663Y-13151960D01*
X15155948Y-13094817D01*
X15170234Y-13066246D01*
X15184520Y-13051960D01*
X15213091Y-13037674D01*
X15441663Y-13309103D02*
X15455948Y-13323389D01*
X15441663Y-13337674D01*
X15427377Y-13323389D01*
X15441663Y-13309103D01*
X15441663Y-13337674D01*
X15627377Y-13166246D02*
X15598806Y-13151960D01*
X15584520Y-13137674D01*
X15570234Y-13109103D01*
X15570234Y-13094817D01*
X15584520Y-13066246D01*
X15598806Y-13051960D01*
X15627377Y-13037674D01*
X15684520Y-13037674D01*
X15713091Y-13051960D01*
X15727377Y-13066246D01*
X15741663Y-13094817D01*
X15741663Y-13109103D01*
X15727377Y-13137674D01*
X15713091Y-13151960D01*
X15684520Y-13166246D01*
X15627377Y-13166246D01*
X15598806Y-13180531D01*
X15584520Y-13194817D01*
X15570234Y-13223389D01*
X15570234Y-13280531D01*
X15584520Y-13309103D01*
X15598806Y-13323389D01*
X15627377Y-13337674D01*
X15684520Y-13337674D01*
X15713091Y-13323389D01*
X15727377Y-13309103D01*
X15741663Y-13280531D01*
X15741663Y-13223389D01*
X15727377Y-13194817D01*
X15713091Y-13180531D01*
X15684520Y-13166246D01*
X16027377Y-13337674D02*
X15855948Y-13337674D01*
X15941663Y-13337674D02*
X15941663Y-13037674D01*
X15913091Y-13080531D01*
X15884520Y-13109103D01*
X15855948Y-13123389D01*
X16155948Y-13337674D02*
X16155948Y-13137674D01*
X16155948Y-13166246D02*
X16170234Y-13151960D01*
X16198806Y-13137674D01*
X16241663Y-13137674D01*
X16270234Y-13151960D01*
X16284520Y-13180531D01*
X16284520Y-13337674D01*
X16284520Y-13180531D02*
X16298806Y-13151960D01*
X16327377Y-13137674D01*
X16370234Y-13137674D01*
X16398806Y-13151960D01*
X16413091Y-13180531D01*
X16413091Y-13337674D01*
X16555948Y-13337674D02*
X16555948Y-13137674D01*
X16555948Y-13166246D02*
X16570234Y-13151960D01*
X16598806Y-13137674D01*
X16641663Y-13137674D01*
X16670234Y-13151960D01*
X16684520Y-13180531D01*
X16684520Y-13337674D01*
X16684520Y-13180531D02*
X16698806Y-13151960D01*
X16727377Y-13137674D01*
X16770234Y-13137674D01*
X16798806Y-13151960D01*
X16813091Y-13180531D01*
X16813091Y-13337674D01*
X17398806Y-13023389D02*
X17141663Y-13409103D01*
X17784520Y-13037674D02*
X17813091Y-13037674D01*
X17841663Y-13051960D01*
X17855948Y-13066246D01*
X17870234Y-13094817D01*
X17884520Y-13151960D01*
X17884520Y-13223389D01*
X17870234Y-13280531D01*
X17855948Y-13309103D01*
X17841663Y-13323389D01*
X17813091Y-13337674D01*
X17784520Y-13337674D01*
X17755948Y-13323389D01*
X17741663Y-13309103D01*
X17727377Y-13280531D01*
X17713091Y-13223389D01*
X17713091Y-13151960D01*
X17727377Y-13094817D01*
X17741663Y-13066246D01*
X17755948Y-13051960D01*
X17784520Y-13037674D01*
X18013091Y-13309103D02*
X18027377Y-13323389D01*
X18013091Y-13337674D01*
X17998806Y-13323389D01*
X18013091Y-13309103D01*
X18013091Y-13337674D01*
X18213091Y-13037674D02*
X18241663Y-13037674D01*
X18270234Y-13051960D01*
X18284520Y-13066246D01*
X18298806Y-13094817D01*
X18313091Y-13151960D01*
X18313091Y-13223389D01*
X18298806Y-13280531D01*
X18284520Y-13309103D01*
X18270234Y-13323389D01*
X18241663Y-13337674D01*
X18213091Y-13337674D01*
X18184520Y-13323389D01*
X18170234Y-13309103D01*
X18155948Y-13280531D01*
X18141663Y-13223389D01*
X18141663Y-13151960D01*
X18155948Y-13094817D01*
X18170234Y-13066246D01*
X18184520Y-13051960D01*
X18213091Y-13037674D01*
X18413091Y-13037674D02*
X18598806Y-13037674D01*
X18498806Y-13151960D01*
X18541663Y-13151960D01*
X18570234Y-13166246D01*
X18584520Y-13180531D01*
X18598806Y-13209103D01*
X18598806Y-13280531D01*
X18584520Y-13309103D01*
X18570234Y-13323389D01*
X18541663Y-13337674D01*
X18455948Y-13337674D01*
X18427377Y-13323389D01*
X18413091Y-13309103D01*
X18713091Y-13066246D02*
X18727377Y-13051960D01*
X18755948Y-13037674D01*
X18827377Y-13037674D01*
X18855948Y-13051960D01*
X18870234Y-13066246D01*
X18884520Y-13094817D01*
X18884520Y-13123389D01*
X18870234Y-13166246D01*
X18698806Y-13337674D01*
X18884520Y-13337674D01*
X18998806Y-13037674D02*
X18998806Y-13094817D01*
X19113091Y-13037674D02*
X19113091Y-13094817D01*
X19555948Y-13451960D02*
X19541663Y-13437674D01*
X19513091Y-13394817D01*
X19498806Y-13366246D01*
X19484520Y-13323389D01*
X19470234Y-13251960D01*
X19470234Y-13194817D01*
X19484520Y-13123389D01*
X19498806Y-13080531D01*
X19513091Y-13051960D01*
X19541663Y-13009103D01*
X19555948Y-12994817D01*
X19798806Y-13137674D02*
X19798806Y-13337674D01*
X19727377Y-13023389D02*
X19655948Y-13237674D01*
X19841663Y-13237674D01*
X20084520Y-13137674D02*
X20084520Y-13337674D01*
X20013091Y-13023389D02*
X19941663Y-13237674D01*
X20127377Y-13237674D01*
X20470234Y-13337674D02*
X20470234Y-13037674D01*
X20598806Y-13337674D02*
X20598806Y-13180531D01*
X20584520Y-13151960D01*
X20555948Y-13137674D01*
X20513091Y-13137674D01*
X20484520Y-13151960D01*
X20470234Y-13166246D01*
X20784520Y-13337674D02*
X20755948Y-13323389D01*
X20741663Y-13309103D01*
X20727377Y-13280531D01*
X20727377Y-13194817D01*
X20741663Y-13166246D01*
X20755948Y-13151960D01*
X20784520Y-13137674D01*
X20827377Y-13137674D01*
X20855948Y-13151960D01*
X20870234Y-13166246D01*
X20884520Y-13194817D01*
X20884520Y-13280531D01*
X20870234Y-13309103D01*
X20855948Y-13323389D01*
X20827377Y-13337674D01*
X20784520Y-13337674D01*
X21055948Y-13337674D02*
X21027377Y-13323389D01*
X21013091Y-13294817D01*
X21013091Y-13037674D01*
X21284520Y-13323389D02*
X21255949Y-13337674D01*
X21198806Y-13337674D01*
X21170234Y-13323389D01*
X21155949Y-13294817D01*
X21155949Y-13180531D01*
X21170234Y-13151960D01*
X21198806Y-13137674D01*
X21255949Y-13137674D01*
X21284520Y-13151960D01*
X21298806Y-13180531D01*
X21298806Y-13209103D01*
X21155949Y-13237674D01*
X21413091Y-13323389D02*
X21441663Y-13337674D01*
X21498806Y-13337674D01*
X21527377Y-13323389D01*
X21541663Y-13294817D01*
X21541663Y-13280531D01*
X21527377Y-13251960D01*
X21498806Y-13237674D01*
X21455949Y-13237674D01*
X21427377Y-13223389D01*
X21413091Y-13194817D01*
X21413091Y-13180531D01*
X21427377Y-13151960D01*
X21455949Y-13137674D01*
X21498806Y-13137674D01*
X21527377Y-13151960D01*
X21641663Y-13451960D02*
X21655949Y-13437674D01*
X21684520Y-13394817D01*
X21698806Y-13366246D01*
X21713091Y-13323389D01*
X21727377Y-13251960D01*
X21727377Y-13194817D01*
X21713091Y-13123389D01*
X21698806Y-13080531D01*
X21684520Y-13051960D01*
X21655949Y-13009103D01*
X21641663Y-12994817D01*
X14834520Y-13647960D02*
X14884520Y-13597960D01*
X14834520Y-13547960D01*
X14784520Y-13597960D01*
X14834520Y-13647960D01*
X15313091Y-13733674D02*
X15141663Y-13733674D01*
X15227377Y-13733674D02*
X15227377Y-13433674D01*
X15198806Y-13476531D01*
X15170234Y-13505103D01*
X15141663Y-13519389D01*
X15441663Y-13705103D02*
X15455948Y-13719389D01*
X15441663Y-13733674D01*
X15427377Y-13719389D01*
X15441663Y-13705103D01*
X15441663Y-13733674D01*
X15641663Y-13433674D02*
X15670234Y-13433674D01*
X15698806Y-13447960D01*
X15713091Y-13462246D01*
X15727377Y-13490817D01*
X15741663Y-13547960D01*
X15741663Y-13619389D01*
X15727377Y-13676531D01*
X15713091Y-13705103D01*
X15698806Y-13719389D01*
X15670234Y-13733674D01*
X15641663Y-13733674D01*
X15613091Y-13719389D01*
X15598806Y-13705103D01*
X15584520Y-13676531D01*
X15570234Y-13619389D01*
X15570234Y-13547960D01*
X15584520Y-13490817D01*
X15598806Y-13462246D01*
X15613091Y-13447960D01*
X15641663Y-13433674D01*
X15927377Y-13433674D02*
X15955948Y-13433674D01*
X15984520Y-13447960D01*
X15998806Y-13462246D01*
X16013091Y-13490817D01*
X16027377Y-13547960D01*
X16027377Y-13619389D01*
X16013091Y-13676531D01*
X15998806Y-13705103D01*
X15984520Y-13719389D01*
X15955948Y-13733674D01*
X15927377Y-13733674D01*
X15898806Y-13719389D01*
X15884520Y-13705103D01*
X15870234Y-13676531D01*
X15855948Y-13619389D01*
X15855948Y-13547960D01*
X15870234Y-13490817D01*
X15884520Y-13462246D01*
X15898806Y-13447960D01*
X15927377Y-13433674D01*
X16155948Y-13733674D02*
X16155948Y-13533674D01*
X16155948Y-13562246D02*
X16170234Y-13547960D01*
X16198806Y-13533674D01*
X16241663Y-13533674D01*
X16270234Y-13547960D01*
X16284520Y-13576531D01*
X16284520Y-13733674D01*
X16284520Y-13576531D02*
X16298806Y-13547960D01*
X16327377Y-13533674D01*
X16370234Y-13533674D01*
X16398806Y-13547960D01*
X16413091Y-13576531D01*
X16413091Y-13733674D01*
X16555948Y-13733674D02*
X16555948Y-13533674D01*
X16555948Y-13562246D02*
X16570234Y-13547960D01*
X16598806Y-13533674D01*
X16641663Y-13533674D01*
X16670234Y-13547960D01*
X16684520Y-13576531D01*
X16684520Y-13733674D01*
X16684520Y-13576531D02*
X16698806Y-13547960D01*
X16727377Y-13533674D01*
X16770234Y-13533674D01*
X16798806Y-13547960D01*
X16813091Y-13576531D01*
X16813091Y-13733674D01*
X17398806Y-13419389D02*
X17141663Y-13805103D01*
X17784520Y-13433674D02*
X17813091Y-13433674D01*
X17841663Y-13447960D01*
X17855948Y-13462246D01*
X17870234Y-13490817D01*
X17884520Y-13547960D01*
X17884520Y-13619389D01*
X17870234Y-13676531D01*
X17855948Y-13705103D01*
X17841663Y-13719389D01*
X17813091Y-13733674D01*
X17784520Y-13733674D01*
X17755948Y-13719389D01*
X17741663Y-13705103D01*
X17727377Y-13676531D01*
X17713091Y-13619389D01*
X17713091Y-13547960D01*
X17727377Y-13490817D01*
X17741663Y-13462246D01*
X17755948Y-13447960D01*
X17784520Y-13433674D01*
X18013091Y-13705103D02*
X18027377Y-13719389D01*
X18013091Y-13733674D01*
X17998806Y-13719389D01*
X18013091Y-13705103D01*
X18013091Y-13733674D01*
X18213091Y-13433674D02*
X18241663Y-13433674D01*
X18270234Y-13447960D01*
X18284520Y-13462246D01*
X18298806Y-13490817D01*
X18313091Y-13547960D01*
X18313091Y-13619389D01*
X18298806Y-13676531D01*
X18284520Y-13705103D01*
X18270234Y-13719389D01*
X18241663Y-13733674D01*
X18213091Y-13733674D01*
X18184520Y-13719389D01*
X18170234Y-13705103D01*
X18155948Y-13676531D01*
X18141663Y-13619389D01*
X18141663Y-13547960D01*
X18155948Y-13490817D01*
X18170234Y-13462246D01*
X18184520Y-13447960D01*
X18213091Y-13433674D01*
X18413091Y-13433674D02*
X18598806Y-13433674D01*
X18498806Y-13547960D01*
X18541663Y-13547960D01*
X18570234Y-13562246D01*
X18584520Y-13576531D01*
X18598806Y-13605103D01*
X18598806Y-13676531D01*
X18584520Y-13705103D01*
X18570234Y-13719389D01*
X18541663Y-13733674D01*
X18455948Y-13733674D01*
X18427377Y-13719389D01*
X18413091Y-13705103D01*
X18741663Y-13733674D02*
X18798806Y-13733674D01*
X18827377Y-13719389D01*
X18841663Y-13705103D01*
X18870234Y-13662246D01*
X18884520Y-13605103D01*
X18884520Y-13490817D01*
X18870234Y-13462246D01*
X18855948Y-13447960D01*
X18827377Y-13433674D01*
X18770234Y-13433674D01*
X18741663Y-13447960D01*
X18727377Y-13462246D01*
X18713091Y-13490817D01*
X18713091Y-13562246D01*
X18727377Y-13590817D01*
X18741663Y-13605103D01*
X18770234Y-13619389D01*
X18827377Y-13619389D01*
X18855948Y-13605103D01*
X18870234Y-13590817D01*
X18884520Y-13562246D01*
X18998806Y-13433674D02*
X18998806Y-13490817D01*
X19113091Y-13433674D02*
X19113091Y-13490817D01*
X19555948Y-13847960D02*
X19541663Y-13833674D01*
X19513091Y-13790817D01*
X19498806Y-13762246D01*
X19484520Y-13719389D01*
X19470234Y-13647960D01*
X19470234Y-13590817D01*
X19484520Y-13519389D01*
X19498806Y-13476531D01*
X19513091Y-13447960D01*
X19541663Y-13405103D01*
X19555948Y-13390817D01*
X19641663Y-13433674D02*
X19827377Y-13433674D01*
X19727377Y-13547960D01*
X19770234Y-13547960D01*
X19798806Y-13562246D01*
X19813091Y-13576531D01*
X19827377Y-13605103D01*
X19827377Y-13676531D01*
X19813091Y-13705103D01*
X19798806Y-13719389D01*
X19770234Y-13733674D01*
X19684520Y-13733674D01*
X19655948Y-13719389D01*
X19641663Y-13705103D01*
X20113091Y-13733674D02*
X19941663Y-13733674D01*
X20027377Y-13733674D02*
X20027377Y-13433674D01*
X19998806Y-13476531D01*
X19970234Y-13505103D01*
X19941663Y-13519389D01*
X20470234Y-13733674D02*
X20470234Y-13433674D01*
X20598806Y-13733674D02*
X20598806Y-13576531D01*
X20584520Y-13547960D01*
X20555948Y-13533674D01*
X20513091Y-13533674D01*
X20484520Y-13547960D01*
X20470234Y-13562246D01*
X20784520Y-13733674D02*
X20755948Y-13719389D01*
X20741663Y-13705103D01*
X20727377Y-13676531D01*
X20727377Y-13590817D01*
X20741663Y-13562246D01*
X20755948Y-13547960D01*
X20784520Y-13533674D01*
X20827377Y-13533674D01*
X20855948Y-13547960D01*
X20870234Y-13562246D01*
X20884520Y-13590817D01*
X20884520Y-13676531D01*
X20870234Y-13705103D01*
X20855948Y-13719389D01*
X20827377Y-13733674D01*
X20784520Y-13733674D01*
X21055948Y-13733674D02*
X21027377Y-13719389D01*
X21013091Y-13690817D01*
X21013091Y-13433674D01*
X21284520Y-13719389D02*
X21255949Y-13733674D01*
X21198806Y-13733674D01*
X21170234Y-13719389D01*
X21155949Y-13690817D01*
X21155949Y-13576531D01*
X21170234Y-13547960D01*
X21198806Y-13533674D01*
X21255949Y-13533674D01*
X21284520Y-13547960D01*
X21298806Y-13576531D01*
X21298806Y-13605103D01*
X21155949Y-13633674D01*
X21413091Y-13719389D02*
X21441663Y-13733674D01*
X21498806Y-13733674D01*
X21527377Y-13719389D01*
X21541663Y-13690817D01*
X21541663Y-13676531D01*
X21527377Y-13647960D01*
X21498806Y-13633674D01*
X21455949Y-13633674D01*
X21427377Y-13619389D01*
X21413091Y-13590817D01*
X21413091Y-13576531D01*
X21427377Y-13547960D01*
X21455949Y-13533674D01*
X21498806Y-13533674D01*
X21527377Y-13547960D01*
X21641663Y-13847960D02*
X21655949Y-13833674D01*
X21684520Y-13790817D01*
X21698806Y-13762246D01*
X21713091Y-13719389D01*
X21727377Y-13647960D01*
X21727377Y-13590817D01*
X21713091Y-13519389D01*
X21698806Y-13476531D01*
X21684520Y-13447960D01*
X21655949Y-13405103D01*
X21641663Y-13390817D01*
X14770220Y-13936810D02*
X14884520Y-14051110D01*
X14884520Y-13936810D02*
X14770220Y-14051110D01*
X14884520Y-13993960D02*
G75*
G03X14884520Y-13993960I-57150J0D01*
G01*
X15313091Y-14129674D02*
X15141663Y-14129674D01*
X15227377Y-14129674D02*
X15227377Y-13829674D01*
X15198806Y-13872531D01*
X15170234Y-13901103D01*
X15141663Y-13915389D01*
X15441663Y-14101103D02*
X15455948Y-14115389D01*
X15441663Y-14129674D01*
X15427377Y-14115389D01*
X15441663Y-14101103D01*
X15441663Y-14129674D01*
X15741663Y-14129674D02*
X15570234Y-14129674D01*
X15655948Y-14129674D02*
X15655948Y-13829674D01*
X15627377Y-13872531D01*
X15598806Y-13901103D01*
X15570234Y-13915389D01*
X15998806Y-13929674D02*
X15998806Y-14129674D01*
X15927377Y-13815389D02*
X15855948Y-14029674D01*
X16041663Y-14029674D01*
X16155948Y-14129674D02*
X16155948Y-13929674D01*
X16155948Y-13958246D02*
X16170234Y-13943960D01*
X16198806Y-13929674D01*
X16241663Y-13929674D01*
X16270234Y-13943960D01*
X16284520Y-13972531D01*
X16284520Y-14129674D01*
X16284520Y-13972531D02*
X16298806Y-13943960D01*
X16327377Y-13929674D01*
X16370234Y-13929674D01*
X16398806Y-13943960D01*
X16413091Y-13972531D01*
X16413091Y-14129674D01*
X16555948Y-14129674D02*
X16555948Y-13929674D01*
X16555948Y-13958246D02*
X16570234Y-13943960D01*
X16598806Y-13929674D01*
X16641663Y-13929674D01*
X16670234Y-13943960D01*
X16684520Y-13972531D01*
X16684520Y-14129674D01*
X16684520Y-13972531D02*
X16698806Y-13943960D01*
X16727377Y-13929674D01*
X16770234Y-13929674D01*
X16798806Y-13943960D01*
X16813091Y-13972531D01*
X16813091Y-14129674D01*
X17398806Y-13815389D02*
X17141663Y-14201103D01*
X17784520Y-13829674D02*
X17813091Y-13829674D01*
X17841663Y-13843960D01*
X17855948Y-13858246D01*
X17870234Y-13886817D01*
X17884520Y-13943960D01*
X17884520Y-14015389D01*
X17870234Y-14072531D01*
X17855948Y-14101103D01*
X17841663Y-14115389D01*
X17813091Y-14129674D01*
X17784520Y-14129674D01*
X17755948Y-14115389D01*
X17741663Y-14101103D01*
X17727377Y-14072531D01*
X17713091Y-14015389D01*
X17713091Y-13943960D01*
X17727377Y-13886817D01*
X17741663Y-13858246D01*
X17755948Y-13843960D01*
X17784520Y-13829674D01*
X18013091Y-14101103D02*
X18027377Y-14115389D01*
X18013091Y-14129674D01*
X17998806Y-14115389D01*
X18013091Y-14101103D01*
X18013091Y-14129674D01*
X18213091Y-13829674D02*
X18241663Y-13829674D01*
X18270234Y-13843960D01*
X18284520Y-13858246D01*
X18298806Y-13886817D01*
X18313091Y-13943960D01*
X18313091Y-14015389D01*
X18298806Y-14072531D01*
X18284520Y-14101103D01*
X18270234Y-14115389D01*
X18241663Y-14129674D01*
X18213091Y-14129674D01*
X18184520Y-14115389D01*
X18170234Y-14101103D01*
X18155948Y-14072531D01*
X18141663Y-14015389D01*
X18141663Y-13943960D01*
X18155948Y-13886817D01*
X18170234Y-13858246D01*
X18184520Y-13843960D01*
X18213091Y-13829674D01*
X18570234Y-13929674D02*
X18570234Y-14129674D01*
X18498806Y-13815389D02*
X18427377Y-14029674D01*
X18613091Y-14029674D01*
X18870234Y-13829674D02*
X18727377Y-13829674D01*
X18713091Y-13972531D01*
X18727377Y-13958246D01*
X18755948Y-13943960D01*
X18827377Y-13943960D01*
X18855948Y-13958246D01*
X18870234Y-13972531D01*
X18884520Y-14001103D01*
X18884520Y-14072531D01*
X18870234Y-14101103D01*
X18855948Y-14115389D01*
X18827377Y-14129674D01*
X18755948Y-14129674D01*
X18727377Y-14115389D01*
X18713091Y-14101103D01*
X18998806Y-13829674D02*
X18998806Y-13886817D01*
X19113091Y-13829674D02*
X19113091Y-13886817D01*
X19555948Y-14243960D02*
X19541663Y-14229674D01*
X19513091Y-14186817D01*
X19498806Y-14158246D01*
X19484520Y-14115389D01*
X19470234Y-14043960D01*
X19470234Y-13986817D01*
X19484520Y-13915389D01*
X19498806Y-13872531D01*
X19513091Y-13843960D01*
X19541663Y-13801103D01*
X19555948Y-13786817D01*
X19684520Y-14129674D02*
X19741663Y-14129674D01*
X19770234Y-14115389D01*
X19784520Y-14101103D01*
X19813091Y-14058246D01*
X19827377Y-14001103D01*
X19827377Y-13886817D01*
X19813091Y-13858246D01*
X19798806Y-13843960D01*
X19770234Y-13829674D01*
X19713091Y-13829674D01*
X19684520Y-13843960D01*
X19670234Y-13858246D01*
X19655948Y-13886817D01*
X19655948Y-13958246D01*
X19670234Y-13986817D01*
X19684520Y-14001103D01*
X19713091Y-14015389D01*
X19770234Y-14015389D01*
X19798806Y-14001103D01*
X19813091Y-13986817D01*
X19827377Y-13958246D01*
X20184520Y-14129674D02*
X20184520Y-13829674D01*
X20313091Y-14129674D02*
X20313091Y-13972531D01*
X20298806Y-13943960D01*
X20270234Y-13929674D01*
X20227377Y-13929674D01*
X20198806Y-13943960D01*
X20184520Y-13958246D01*
X20498806Y-14129674D02*
X20470234Y-14115389D01*
X20455948Y-14101103D01*
X20441663Y-14072531D01*
X20441663Y-13986817D01*
X20455948Y-13958246D01*
X20470234Y-13943960D01*
X20498806Y-13929674D01*
X20541663Y-13929674D01*
X20570234Y-13943960D01*
X20584520Y-13958246D01*
X20598806Y-13986817D01*
X20598806Y-14072531D01*
X20584520Y-14101103D01*
X20570234Y-14115389D01*
X20541663Y-14129674D01*
X20498806Y-14129674D01*
X20770234Y-14129674D02*
X20741663Y-14115389D01*
X20727377Y-14086817D01*
X20727377Y-13829674D01*
X20998806Y-14115389D02*
X20970234Y-14129674D01*
X20913091Y-14129674D01*
X20884520Y-14115389D01*
X20870234Y-14086817D01*
X20870234Y-13972531D01*
X20884520Y-13943960D01*
X20913091Y-13929674D01*
X20970234Y-13929674D01*
X20998806Y-13943960D01*
X21013091Y-13972531D01*
X21013091Y-14001103D01*
X20870234Y-14029674D01*
X21127377Y-14115389D02*
X21155949Y-14129674D01*
X21213091Y-14129674D01*
X21241663Y-14115389D01*
X21255949Y-14086817D01*
X21255949Y-14072531D01*
X21241663Y-14043960D01*
X21213091Y-14029674D01*
X21170234Y-14029674D01*
X21141663Y-14015389D01*
X21127377Y-13986817D01*
X21127377Y-13972531D01*
X21141663Y-13943960D01*
X21170234Y-13929674D01*
X21213091Y-13929674D01*
X21241663Y-13943960D01*
X21355948Y-14243960D02*
X21370234Y-14229674D01*
X21398806Y-14186817D01*
X21413091Y-14158246D01*
X21427377Y-14115389D01*
X21441663Y-14043960D01*
X21441663Y-13986817D01*
X21427377Y-13915389D01*
X21413091Y-13872531D01*
X21398806Y-13843960D01*
X21370234Y-13801103D01*
X21355948Y-13786817D01*
M02*
